<svg width="81" height="80" viewBox="0 0 81 80" fill="none" xmlns="http://www.w3.org/2000/svg">
<g id="destination.svg" clip-path="url(#clip0_1_185)">
<g id="Group">
<path id="Vector" d="M40.8427 71.6555C58.1564 71.6555 72.192 57.6199 72.192 40.3062C72.192 22.9924 58.1564 8.95679 40.8427 8.95679C23.5289 8.95679 9.49329 22.9924 9.49329 40.3062C9.49329 57.6199 23.5289 71.6555 40.8427 71.6555Z" fill="#E76F51"/>
<g id="Group_2">
<g id="Group_3">
<path id="Vector_2" d="M20.1511 24.0449C14.9505 24.0506 9.96444 26.1191 6.287 29.7965C2.60957 33.474 0.54109 38.46 0.5354 43.6607C0.5354 50.3784 3.72945 57.5959 10.0298 65.1198C10.9658 66.2376 11.8991 67.2694 12.7939 68.2189C8.72565 69.3295 6.28398 71.3242 6.28398 73.6522C6.28398 77.7724 13.428 79.9982 20.1494 79.9982C26.8707 79.9982 34.0147 77.7742 34.0147 73.6522C34.0147 71.3233 31.5731 69.3304 27.5084 68.2198C29.3054 66.3305 30.985 64.3329 32.5377 62.2383C32.6319 62.1145 32.7006 61.9731 32.7396 61.8225C32.7787 61.6719 32.7874 61.515 32.7653 61.361C32.7431 61.207 32.6906 61.0589 32.6107 60.9254C32.5308 60.7919 32.4252 60.6756 32.2999 60.5833C32.1746 60.491 32.0323 60.4245 31.8811 60.3878C31.7299 60.351 31.5729 60.3447 31.4192 60.3692C31.2656 60.3937 31.1183 60.4485 30.986 60.5304C30.8537 60.6123 30.7391 60.7197 30.6487 60.8464C28.8034 63.3255 26.7781 65.6654 24.5893 67.8472C24.3697 67.9585 24.1908 68.1362 24.0779 68.355C22.3841 70.0192 20.9591 71.2544 20.1502 71.9288C19.3504 71.2607 17.9468 70.0425 16.2746 68.3998C16.1562 68.1402 15.9473 67.9326 15.687 67.8158C10.3737 62.4712 2.87854 53.2375 2.87854 43.6607C2.91137 39.1023 4.7452 34.7418 7.98012 31.5301C11.215 28.3184 15.5886 26.516 20.1471 26.516C24.7056 26.516 29.0792 28.3184 32.3141 31.5301C35.549 34.7418 37.3829 39.1023 37.4157 43.6607C37.4157 47.8194 35.9987 52.3095 33.2059 57.0065C33.1224 57.1391 33.0663 57.2869 33.0409 57.4415C33.0155 57.596 33.0212 57.7541 33.0579 57.9063C33.0945 58.0586 33.1612 58.202 33.2541 58.3281C33.347 58.4541 33.4642 58.5603 33.5988 58.6404C33.7334 58.7205 33.8827 58.7728 34.0378 58.7943C34.193 58.8157 34.3508 58.8059 34.5021 58.7654C34.6534 58.7249 34.795 58.6546 34.9187 58.5585C35.0424 58.4624 35.1455 58.3425 35.2221 58.2059C38.2353 53.1398 39.7633 48.2457 39.7633 43.6589C39.7571 38.4591 37.6889 33.4741 34.0123 29.7972C30.3357 26.1202 25.3509 24.0516 20.1511 24.0449ZM19.4346 74.3678C19.6399 74.5262 19.8919 74.612 20.1511 74.612C20.4104 74.612 20.6624 74.5262 20.8677 74.3678C22.5135 73.0539 24.0886 71.6538 25.5862 70.1733C29.5425 70.9794 31.6707 72.5334 31.6707 73.6522C31.6707 74.4869 30.526 75.4722 28.6835 76.2237C25.953 77.2264 23.0594 77.7109 20.1511 77.6523C13.119 77.6523 8.6316 75.2832 8.6316 73.6531C8.6316 72.5334 10.7598 70.9803 14.7223 70.1733C16.2173 71.6542 17.7897 73.055 19.4328 74.3696L19.4346 74.3678Z" fill="#3B3735"/>
</g>
<g id="Group_4">
<path id="Vector_3" d="M20.1511 35.1336C18.3103 35.1276 16.5178 35.7223 15.0456 36.8273C14.9221 36.9196 14.818 37.0352 14.7392 37.1677C14.6604 37.3001 14.6084 37.4468 14.5863 37.5994C14.5641 37.7519 14.5723 37.9073 14.6102 38.0567C14.6482 38.2061 14.7151 38.3465 14.8074 38.47C14.8996 38.5936 15.0152 38.6977 15.1477 38.7765C15.2801 38.8553 15.4268 38.9073 15.5794 38.9294C15.7319 38.9515 15.8873 38.9434 16.0367 38.9054C16.1861 38.8675 16.3266 38.8005 16.4501 38.7083C17.6229 37.8354 19.0677 37.4077 20.5266 37.5014C21.9856 37.5951 23.3638 38.2041 24.4153 39.2199C25.4668 40.2356 26.1232 41.5919 26.2674 43.0467C26.4115 44.5016 26.034 45.9603 25.2023 47.1626C24.3706 48.3649 23.1387 49.2326 21.7265 49.6108C20.3143 49.989 18.8136 49.8531 17.4924 49.2273C16.1711 48.6016 15.1151 47.5268 14.5129 46.1946C13.9107 44.8624 13.8014 43.3596 14.2046 41.9543C14.2496 41.8055 14.2645 41.6492 14.2486 41.4946C14.2327 41.3399 14.1862 41.19 14.1118 41.0534C14.0374 40.9169 13.9367 40.7965 13.8154 40.6993C13.6941 40.602 13.5547 40.5298 13.4052 40.4869C13.2558 40.444 13.0993 40.4312 12.9449 40.4493C12.7905 40.4674 12.6412 40.516 12.5057 40.5923C12.3703 40.6685 12.2513 40.771 12.1558 40.8936C12.0602 41.0163 11.99 41.1567 11.9492 41.3067C11.4548 43.0259 11.5134 44.857 12.1167 46.541C12.72 48.225 13.8375 49.6767 15.3111 50.6908C16.7847 51.7049 18.5398 52.2301 20.3283 52.192C22.1167 52.1539 23.8479 51.5545 25.277 50.4786C26.7061 49.4027 27.7607 47.9047 28.2918 46.1965C28.8229 44.4883 28.8035 42.6564 28.2363 40.9599C27.6692 39.2633 26.583 37.788 25.1314 36.7426C23.6798 35.6972 21.9363 35.1347 20.1475 35.1345L20.1511 35.1336Z" fill="#3B3735"/>
</g>
<g id="Group_5">
<path id="Vector_4" d="M71.2747 34.0811C71.8713 33.4407 72.4866 32.751 73.1029 32.0139C77.9871 26.1802 80.4637 20.5731 80.4637 15.3459C80.4639 11.8041 79.2392 8.37122 76.9972 5.62934C74.7553 2.88746 71.6341 1.00531 68.1628 0.302008C64.6916 -0.401289 61.0839 0.117554 57.9516 1.77056C54.8192 3.42357 52.3549 6.10902 50.9765 9.37157C50.8642 9.65638 50.8676 9.97381 50.9861 10.2561C51.1046 10.5384 51.3287 10.7632 51.6106 10.8826C51.8926 11.0019 52.21 11.0064 52.4951 10.8949C52.7803 10.7835 53.0106 10.565 53.1369 10.2861C54.3047 7.52254 56.3923 5.24788 59.0457 3.84769C61.6991 2.44751 64.755 2.00796 67.6955 2.60356C70.6359 3.19916 73.28 4.79325 75.1793 7.11561C77.0787 9.43797 78.1166 12.3457 78.117 15.3459C78.117 25.04 67.9392 34.3274 65.1159 36.7172C64.4934 36.1914 63.5144 35.3306 62.3662 34.2092C62.2526 33.9849 62.0698 33.8031 61.8449 33.6906C57.7945 29.6125 52.1167 22.6019 52.1167 15.3503C52.1082 15.0449 51.981 14.7548 51.7619 14.5417C51.5429 14.3286 51.2494 14.2094 50.9438 14.2094C50.6382 14.2094 50.3447 14.3286 50.1256 14.5417C49.9066 14.7548 49.7793 15.0449 49.7709 15.3503C49.7709 20.5767 52.2475 26.1883 57.1317 32.0183C57.7479 32.7546 58.3624 33.4443 58.9589 34.0847C55.9351 34.993 54.1893 36.5398 54.1893 38.402C54.1893 39.973 55.463 41.3578 57.7775 42.2991C62.5291 43.9672 67.7072 43.9672 72.4588 42.2991C74.7724 41.356 76.0461 39.9703 76.0461 38.4011C76.0443 36.5389 74.2977 34.9912 71.2747 34.0811ZM65.1168 41.2019C59.5635 41.2019 56.5343 39.3505 56.5343 38.3993C56.5343 37.7795 57.9119 36.6455 60.8551 36.0203C61.9815 37.129 63.1645 38.1786 64.3994 39.1651C64.6047 39.3234 64.8567 39.4093 65.1159 39.4093C65.3752 39.4093 65.6272 39.3234 65.8325 39.1651C67.0674 38.1787 68.2504 37.129 69.3768 36.0203C70.5133 36.2343 71.6079 36.6302 72.6183 37.1928C73.2936 37.6039 73.6931 38.0553 73.6931 38.3993C73.6985 39.3487 70.6693 41.2019 65.1168 41.2019Z" fill="#3B3735"/>
</g>
<g id="Group_6">
<path id="Vector_5" d="M65.1169 8.52075C63.7668 8.52075 62.447 8.9211 61.3245 9.67116C60.202 10.4212 59.327 11.4873 58.8104 12.7346C58.2937 13.9819 58.1585 15.3544 58.4219 16.6786C58.6853 18.0027 59.3354 19.219 60.2901 20.1736C61.2447 21.1283 62.461 21.7784 63.7852 22.0418C65.1093 22.3052 66.4818 22.17 67.7291 21.6533C68.9764 21.1367 70.0425 20.2618 70.7926 19.1392C71.5426 18.0167 71.943 16.6969 71.943 15.3469C71.9409 13.5371 71.221 11.8021 69.9413 10.5224C68.6616 9.24274 66.9266 8.52289 65.1169 8.52075ZM65.1169 19.8271C64.2311 19.8271 63.3652 19.5645 62.6288 19.0724C61.8923 18.5803 61.3183 17.8808 60.9793 17.0625C60.6403 16.2442 60.5517 15.3437 60.7245 14.4749C60.8973 13.6062 61.3238 12.8082 61.9501 12.1819C62.5764 11.5556 63.3744 11.129 64.2432 10.9562C65.1119 10.7834 66.0124 10.8721 66.8307 11.2111C67.649 11.55 68.3485 12.124 68.8406 12.8605C69.3327 13.597 69.5954 14.4629 69.5954 15.3486C69.5937 16.5359 69.1213 17.6741 68.2818 18.5136C67.4423 19.3531 66.3041 19.8255 65.1169 19.8271Z" fill="#3B3735"/>
</g>
<g id="Group_7">
<path id="Vector_6" d="M49.899 37.2251H49.3616C48.9722 37.2251 48.5832 37.2509 48.1972 37.3021C47.8884 37.3432 47.6086 37.5053 47.4193 37.7527C47.2299 38.0002 47.1467 38.3127 47.1878 38.6215C47.2289 38.9303 47.3909 39.2102 47.6384 39.3995C47.8858 39.5888 48.1983 39.672 48.5071 39.6309C48.791 39.5934 49.0771 39.5745 49.3634 39.5745H49.9008C50.212 39.5745 50.5105 39.4509 50.7305 39.2308C50.9506 39.0108 51.0742 38.7123 51.0742 38.4011C51.0742 38.09 50.9506 37.7915 50.7305 37.5715C50.5105 37.3514 50.212 37.2278 49.9008 37.2278L49.899 37.2251Z" fill="#3B3735"/>
</g>
<g id="Group_8">
<path id="Vector_7" d="M46.0215 72.425H46.0162L44.4666 72.4322C44.1612 72.4413 43.8713 72.5693 43.6587 72.7888C43.4461 73.0083 43.3276 73.3021 43.3283 73.6077C43.329 73.9133 43.4489 74.2066 43.6625 74.4252C43.8761 74.6437 44.1665 74.7703 44.472 74.7781H44.4774L46.0269 74.7709C46.3324 74.7618 46.6223 74.6338 46.8349 74.4143C47.0474 74.1948 47.166 73.9009 47.1653 73.5953C47.1646 73.2897 47.0447 72.9965 46.8311 72.7779C46.6175 72.5594 46.327 72.4328 46.0215 72.425Z" fill="#3B3735"/>
</g>
<g id="Group_9">
<path id="Vector_8" d="M51.2918 52.4206H49.7423C49.5855 52.4163 49.4295 52.4434 49.2834 52.5004C49.1373 52.5574 49.0041 52.6431 48.8917 52.7525C48.7793 52.8618 48.69 52.9926 48.6289 53.137C48.5679 53.2815 48.5365 53.4367 48.5365 53.5935C48.5365 53.7503 48.5679 53.9056 48.6289 54.05C48.69 54.1945 48.7793 54.3252 48.8917 54.4346C49.0041 54.5439 49.1373 54.6296 49.2834 54.6866C49.4295 54.7436 49.5855 54.7708 49.7423 54.7664H51.2918C51.4486 54.7708 51.6046 54.7436 51.7507 54.6866C51.8968 54.6296 52.03 54.5439 52.1424 54.4346C52.2548 54.3252 52.3442 54.1945 52.4052 54.05C52.4662 53.9056 52.4976 53.7503 52.4976 53.5935C52.4976 53.4367 52.4662 53.2815 52.4052 53.137C52.3442 52.9926 52.2548 52.8618 52.1424 52.7525C52.03 52.6431 51.8968 52.5574 51.7507 52.5004C51.6046 52.4434 51.4486 52.4163 51.2918 52.4206Z" fill="#3B3735"/>
</g>
<g id="Group_10">
<path id="Vector_9" d="M45.0748 39.6147C44.8638 39.386 44.5706 39.2504 44.2597 39.2378C43.9488 39.2252 43.6456 39.3366 43.4168 39.5475C42.9786 39.9519 42.5824 40.3996 42.2345 40.8839C42.1422 41.0089 42.0756 41.151 42.0387 41.302C42.0017 41.4529 41.9951 41.6097 42.0192 41.7633C42.0434 41.9168 42.0978 42.064 42.1793 42.1963C42.2608 42.3286 42.3678 42.4435 42.494 42.5341C42.6202 42.6247 42.7632 42.6894 42.9146 42.7243C43.0661 42.7593 43.2229 42.7638 43.3761 42.7376C43.5293 42.7114 43.6758 42.655 43.807 42.5717C43.9382 42.4885 44.0516 42.38 44.1406 42.2525C44.3958 41.8972 44.6862 41.5686 45.0076 41.2718C45.2361 41.0608 45.3715 40.7678 45.3841 40.4571C45.3967 40.1464 45.2854 39.8434 45.0748 39.6147Z" fill="#3B3735"/>
</g>
<g id="Group_11">
<path id="Vector_10" d="M52.2189 72.3928H52.2135L50.664 72.4C50.3585 72.4091 50.0687 72.537 49.8561 72.7566C49.6435 72.9761 49.5249 73.2699 49.5256 73.5755C49.5263 73.8811 49.6462 74.1744 49.8598 74.3929C50.0734 74.6115 50.3639 74.7381 50.6694 74.7458H50.6748L52.2243 74.7387C52.5298 74.7296 52.8196 74.6016 53.0322 74.3821C53.2448 74.1626 53.3634 73.8687 53.3627 73.5631C53.362 73.2575 53.2421 72.9643 53.0285 72.7457C52.8149 72.5272 52.5244 72.4005 52.2189 72.3928Z" fill="#3B3735"/>
</g>
<g id="Group_12">
<path id="Vector_11" d="M39.8233 72.4492H39.8179L38.2683 72.4564C37.9571 72.4571 37.659 72.5814 37.4394 72.802C37.2199 73.0225 37.0969 73.3213 37.0977 73.6324C37.0984 73.9436 37.2227 74.2418 37.4432 74.4613C37.6638 74.6809 37.9625 74.8038 38.2737 74.8031H38.2791L39.8286 74.796C40.1341 74.7869 40.424 74.6589 40.6366 74.4394C40.8492 74.2199 40.9677 73.926 40.967 73.6204C40.9663 73.3148 40.8464 73.0216 40.6328 72.803C40.4192 72.5845 40.1288 72.4578 39.8233 72.4501V72.4492Z" fill="#3B3735"/>
</g>
<g id="Group_13">
<path id="Vector_12" d="M45.9418 51.4335C45.5721 51.2002 45.227 50.9302 44.9117 50.6274C44.8013 50.5175 44.6701 50.4307 44.5258 50.372C44.3815 50.3134 44.227 50.284 44.0712 50.2857C43.9155 50.2874 43.7616 50.3201 43.6186 50.3819C43.4756 50.4437 43.3463 50.5333 43.2384 50.6456C43.1304 50.7579 43.0458 50.8905 42.9896 51.0358C42.9335 51.1811 42.9067 51.3361 42.9111 51.4918C42.9155 51.6475 42.9508 51.8008 43.015 51.9428C43.0792 52.0847 43.1711 52.2124 43.2851 52.3184C43.7149 52.7316 44.1855 53.1001 44.6896 53.4184C44.8199 53.5007 44.9651 53.5566 45.1169 53.5828C45.2688 53.609 45.4243 53.605 45.5747 53.5712C45.725 53.5373 45.8672 53.4741 45.9931 53.3853C46.119 53.2964 46.2263 53.1836 46.3086 53.0534C46.3909 52.9231 46.4468 52.7779 46.473 52.626C46.4992 52.4741 46.4953 52.3186 46.4614 52.1683C46.4275 52.0179 46.3643 51.8758 46.2755 51.7498C46.1866 51.6239 46.0739 51.5167 45.9436 51.4344L45.9418 51.4335Z" fill="#3B3735"/>
</g>
<g id="Group_14">
<path id="Vector_13" d="M43.0586 47.2318C42.9794 46.8243 42.9395 46.4101 42.9395 45.9949V45.9295C42.9414 45.7754 42.9129 45.6225 42.8556 45.4795C42.7984 45.3365 42.7135 45.2061 42.6059 45.0959C42.4983 44.9857 42.37 44.8977 42.2283 44.8371C42.0867 44.7765 41.9345 44.7444 41.7804 44.7427H41.7661C41.4574 44.7429 41.1612 44.8648 40.9417 45.0819C40.7222 45.299 40.5972 45.5939 40.5936 45.9026V45.9922C40.5936 46.558 40.6479 47.1225 40.7558 47.6779C40.8218 47.9768 41.0019 48.238 41.2578 48.406C41.5137 48.5739 41.8251 48.6351 42.1255 48.5767C42.426 48.5183 42.6917 48.3448 42.866 48.0932C43.0403 47.8416 43.1094 47.5319 43.0586 47.23V47.2318Z" fill="#3B3735"/>
</g>
<g id="Group_15">
<path id="Vector_14" d="M57.4901 52.4206H55.9405C55.7838 52.4163 55.6277 52.4434 55.4817 52.5004C55.3356 52.5574 55.2024 52.6431 55.09 52.7525C54.9775 52.8618 54.8882 52.9926 54.8272 53.137C54.7662 53.2815 54.7347 53.4367 54.7347 53.5935C54.7347 53.7503 54.7662 53.9056 54.8272 54.05C54.8882 54.1945 54.9775 54.3252 55.09 54.4346C55.2024 54.5439 55.3356 54.6296 55.4817 54.6866C55.6277 54.7436 55.7838 54.7708 55.9405 54.7664H57.4901C57.6468 54.7708 57.8029 54.7436 57.949 54.6866C58.0951 54.6296 58.2282 54.5439 58.3407 54.4346C58.4531 54.3252 58.5424 54.1945 58.6034 54.05C58.6644 53.9056 58.6959 53.7503 58.6959 53.5935C58.6959 53.4367 58.6644 53.2815 58.6034 53.137C58.5424 52.9926 58.4531 52.8618 58.3407 52.7525C58.2282 52.6431 58.0951 52.5574 57.949 52.5004C57.8029 52.4434 57.6468 52.4163 57.4901 52.4206Z" fill="#3B3735"/>
</g>
<g id="Group_16">
<path id="Vector_15" d="M76.3238 54.8076C75.8717 54.4502 75.3926 54.1282 74.8907 53.8447C74.6202 53.6998 74.3037 53.6665 74.009 53.7522C73.7143 53.8378 73.4649 54.0355 73.3142 54.3029C73.1636 54.5702 73.1236 54.886 73.203 55.1824C73.2824 55.4789 73.4748 55.7324 73.7389 55.8887C74.1359 56.1126 74.515 56.3669 74.8728 56.6492C75.117 56.8421 75.4278 56.93 75.7369 56.8938C76.046 56.8575 76.328 56.6999 76.5209 56.4557C76.7138 56.2115 76.8018 55.9007 76.7655 55.5916C76.7292 55.2825 76.5716 55.0005 76.3274 54.8076H76.3238Z" fill="#3B3735"/>
</g>
<g id="Group_17">
<path id="Vector_16" d="M71.969 73.2329C71.9263 72.9247 71.7629 72.646 71.5149 72.4583C71.2668 72.2705 70.9542 72.1889 70.646 72.2315C70.2583 72.2849 69.8675 72.3124 69.4762 72.3139H69.2568C68.9513 72.323 68.6615 72.451 68.4489 72.6705C68.2363 72.89 68.1177 73.1838 68.1184 73.4894C68.1191 73.795 68.239 74.0883 68.4526 74.3069C68.6662 74.5254 68.9567 74.652 69.2622 74.6597H69.487C69.9823 74.6576 70.4769 74.6226 70.9676 74.5549C71.2756 74.5123 71.5541 74.3491 71.7419 74.1012C71.9296 73.8533 72.0113 73.541 71.969 73.2329Z" fill="#3B3735"/>
</g>
<g id="Group_18">
<path id="Vector_17" d="M77.1461 69.935C77.0399 69.8233 76.9127 69.7337 76.7718 69.6712C76.6309 69.6087 76.4791 69.5746 76.325 69.5709C76.1709 69.5672 76.0177 69.5938 75.8739 69.6494C75.7302 69.7049 75.5988 69.7883 75.4872 69.8947C75.1571 70.2093 74.8031 70.4979 74.4285 70.7581C74.2984 70.8444 74.1868 70.9557 74.1002 71.0857C74.0137 71.2156 73.9539 71.3615 73.9245 71.5148C73.8951 71.6682 73.8965 71.8258 73.9288 71.9786C73.961 72.1313 74.0234 72.2761 74.1124 72.4044C74.2013 72.5328 74.315 72.6421 74.4467 72.7259C74.5784 72.8098 74.7255 72.8665 74.8794 72.8928C75.0333 72.919 75.1909 72.9143 75.3429 72.8789C75.495 72.8435 75.6384 72.7781 75.7649 72.6865C76.2402 72.3574 76.6894 71.9921 77.1084 71.5938C77.3334 71.3788 77.4637 71.0833 77.4708 70.7722C77.4778 70.4611 77.361 70.1599 77.1461 69.935Z" fill="#3B3735"/>
</g>
<g id="Group_19">
<path id="Vector_18" d="M79.4301 64.2374C79.1244 64.1801 78.8084 64.2464 78.5516 64.4219C78.2948 64.5974 78.1182 64.8677 78.0606 65.1734C77.9755 65.6209 77.8557 66.0612 77.7023 66.4901C77.6463 66.6361 77.62 66.7919 77.625 66.9483C77.63 67.1047 77.6663 67.2585 77.7316 67.4006C77.7969 67.5428 77.89 67.6704 78.0054 67.776C78.1208 67.8817 78.2562 67.9632 78.4035 68.0157C78.5509 68.0683 78.7073 68.0909 78.8635 68.0821C79.0197 68.0733 79.1725 68.0334 79.3131 67.9647C79.4536 67.896 79.579 67.7999 79.6819 67.682C79.7847 67.5641 79.863 67.4269 79.912 67.2783C80.1044 66.734 80.2542 66.1755 80.3599 65.6078C80.4177 65.3029 80.3523 64.9875 80.178 64.7306C80.0038 64.4738 79.7348 64.2964 79.4301 64.2374Z" fill="#3B3735"/>
</g>
<g id="Group_20">
<path id="Vector_19" d="M80.127 60.4657C79.9672 59.91 79.7641 59.3676 79.5197 58.8436C79.4556 58.7022 79.3642 58.575 79.2506 58.4692C79.137 58.3634 79.0036 58.2813 78.8581 58.2274C78.7125 58.1736 78.5577 58.1491 78.4026 58.1555C78.2476 58.1619 78.0953 58.199 77.9547 58.2646C77.8141 58.3303 77.6879 58.4231 77.5834 58.5379C77.4789 58.6526 77.3982 58.787 77.346 58.9331C77.2938 59.0793 77.2711 59.2343 77.2792 59.3893C77.2873 59.5443 77.3261 59.6961 77.3933 59.836C77.5859 60.2486 77.7458 60.6757 77.8716 61.1133C77.9124 61.2633 77.9826 61.4037 78.0782 61.5263C78.1737 61.649 78.2927 61.7514 78.4282 61.8277C78.5636 61.904 78.7129 61.9526 78.8673 61.9707C79.0217 61.9887 79.1782 61.976 79.3277 61.9331C79.4771 61.8902 79.6165 61.818 79.7378 61.7207C79.8591 61.6235 79.9599 61.5031 80.0342 61.3666C80.1086 61.23 80.1551 61.0801 80.171 60.9254C80.1869 60.7708 80.172 60.6145 80.127 60.4657Z" fill="#3B3735"/>
</g>
<g id="Group_21">
<path id="Vector_20" d="M63.6873 52.4204H62.1378C61.8323 52.4289 61.5422 52.5561 61.3291 52.7752C61.116 52.9942 60.9968 53.2877 60.9968 53.5933C60.9968 53.8989 61.116 54.1924 61.3291 54.4115C61.5422 54.6305 61.8323 54.7578 62.1378 54.7662H63.6873C63.9928 54.7578 64.2829 54.6305 64.496 54.4115C64.709 54.1924 64.8283 53.8989 64.8283 53.5933C64.8283 53.2877 64.709 52.9942 64.496 52.7752C64.2829 52.5561 63.9928 52.4289 63.6873 52.4204Z" fill="#3B3735"/>
</g>
<g id="Group_22">
<path id="Vector_21" d="M58.4171 72.365H58.4117L56.8621 72.3722C56.5567 72.3813 56.2668 72.5092 56.0542 72.7287C55.8416 72.9483 55.7231 73.2421 55.7238 73.5477C55.7245 73.8533 55.8444 74.1466 56.058 74.3651C56.2716 74.5837 56.562 74.7103 56.8675 74.718H56.8729L58.4224 74.7108C58.7279 74.7017 59.0178 74.5738 59.2304 74.3542C59.443 74.1347 59.5615 73.8409 59.5608 73.5353C59.5601 73.2297 59.4402 72.9364 59.2266 72.7179C59.013 72.4993 58.7226 72.3727 58.4171 72.365Z" fill="#3B3735"/>
</g>
<g id="Group_23">
<path id="Vector_22" d="M69.9367 52.4294C69.771 52.4223 69.6025 52.4187 69.4368 52.4187H68.3352C68.0297 52.4271 67.7396 52.5544 67.5265 52.7734C67.3134 52.9925 67.1942 53.286 67.1942 53.5916C67.1942 53.8972 67.3134 54.1907 67.5265 54.4098C67.7396 54.6288 68.0297 54.7561 68.3352 54.7645H69.4368C69.5694 54.7645 69.7014 54.7675 69.8328 54.7735H69.8856C70.1902 54.7702 70.4816 54.6486 70.6981 54.4345C70.9147 54.2203 71.0395 53.9303 71.0462 53.6257C71.0528 53.3212 70.9407 53.026 70.7337 52.8026C70.5266 52.5792 70.2408 52.445 69.9367 52.4285V52.4294Z" fill="#3B3735"/>
</g>
<g id="Group_24">
<path id="Vector_23" d="M64.6144 72.3364H64.6091L63.0595 72.3436C62.7541 72.3527 62.4642 72.4807 62.2516 72.7002C62.039 72.9197 61.9204 73.2135 61.9211 73.5191C61.9218 73.8247 62.0417 74.118 62.2553 74.3366C62.4689 74.5551 62.7594 74.6817 63.0649 74.6894H63.0703L64.6198 74.6823C64.9253 74.6732 65.2151 74.5452 65.4277 74.3257C65.6403 74.1062 65.7589 73.8124 65.7582 73.5068C65.7575 73.2012 65.6376 72.9079 65.424 72.6893C65.2104 72.4708 64.9199 72.3441 64.6144 72.3364Z" fill="#3B3735"/>
</g>
</g>
</g>
</g>
<defs>
<clipPath id="clip0_1_185">
<rect width="79.9275" height="80" fill="white" transform="translate(0.536255)"/>
</clipPath>
</defs>
</svg>
