<svg width="83" height="83" viewBox="0 0 83 83" fill="none" xmlns="http://www.w3.org/2000/svg">
<g id="fire.svg" clip-path="url(#clip0_1_51)">
<g id="Group">
<path id="Vector" d="M9.39087 80.6455C11.9429 79.9613 13.0871 75.9583 11.9466 71.7046C10.8062 67.4509 7.8128 64.5573 5.26081 65.2416C2.70881 65.9258 1.56456 69.9288 2.70505 74.1824C3.84553 78.4361 6.83888 81.3297 9.39087 80.6455Z" fill="#FFD2C6"/>
<path id="Vector_2" fill-rule="evenodd" clip-rule="evenodd" d="M5.24512 65.2384C7.79718 64.5544 10.7903 67.4485 11.9303 71.7026C13.0703 75.9567 11.9253 79.9598 9.37222 80.6438L41.479 72.0436L71.1467 64.0904C71.4502 64.0088 71.7388 63.8795 72.0018 63.7074C73.9408 62.4444 74.7078 58.8943 73.7018 55.1502C72.5618 50.8961 69.5687 48.002 67.0166 48.686L63.2285 49.7011L50.1282 53.2121L41.48 55.5292L10.9623 63.7074L5.24512 65.2384Z" fill="#E76F51"/>
<path id="Vector_3" fill-rule="evenodd" clip-rule="evenodd" d="M71.15 64.0904L41.483 72.0394L73.589 80.6394C71.037 79.9554 69.889 75.9524 71.031 71.6984C72.173 67.4444 75.164 64.5504 77.716 65.2344L72.004 63.7034C71.742 63.8767 71.4541 64.0073 71.151 64.0904H71.15Z" fill="#E76F51"/>
<path id="Vector_4" d="M80.2923 74.1877C81.4328 69.934 80.2886 65.9311 77.7366 65.2468C75.1846 64.5626 72.1912 67.4562 71.0508 71.7099C69.9103 75.9636 71.0545 79.9665 73.6065 80.6508C76.1585 81.335 79.1519 78.4414 80.2923 74.1877Z" fill="#E76F51"/>
<path id="Vector_5" fill-rule="evenodd" clip-rule="evenodd" d="M10.9622 63.707L41.4832 55.529L30.9152 52.697L20.6872 49.957L15.9402 48.686C13.3882 48.002 10.3952 50.896 9.25519 55.15C8.25519 58.894 9.02319 62.444 10.9622 63.707Z" fill="#E76F51"/>
<path id="Vector_6" fill-rule="evenodd" clip-rule="evenodd" d="M30.9158 52.6975L41.4838 55.5295L50.1318 53.2125C52.9078 41.8945 47.8558 34.3225 44.1078 30.7905C45.2238 40.1205 37.4078 45.7815 37.4078 45.7815C34.6168 43.7085 34.2978 39.4025 34.2978 39.4025C30.6488 43.0515 29.3368 47.0355 30.9148 52.7025L30.9158 52.6975Z" fill="#FF8A6C"/>
<path id="Vector_7" fill-rule="evenodd" clip-rule="evenodd" d="M30.9157 52.6971C29.3377 47.034 30.6497 43.0509 34.2988 39.3968C34.2988 39.3968 34.6178 43.7029 37.4089 45.7759C37.4089 45.7759 45.2231 40.1138 44.1091 30.7846C47.8572 34.3167 52.9093 41.8848 50.1332 53.2071L63.2335 49.696C69.5577 32.7586 59.1584 18.4603 59.1584 18.4603C58.771 20.548 57.9266 22.5243 56.6858 24.2475C55.445 25.9706 53.8384 27.3981 51.9813 28.4275C56.8474 6.66299 40.58 2.27588 40.58 2.27588C47.8342 15.4762 35.3169 14.3152 35.3169 28.5905C35.3169 22.7504 33.5628 18.3833 28.2167 14.7952C32.1598 30.7186 9.85723 31.7886 20.6835 49.956L30.9157 52.6971Z" fill="#FFB63B"/>
</g>
<g id="Group_2">
<path id="Vector_8" d="M81.915 67.9315C81.7092 66.9567 81.2515 66.053 80.5875 65.3102C79.9236 64.5675 79.0766 64.0117 78.1309 63.6984L74.7988 62.8054C75.0261 62.3549 75.21 61.8837 75.3478 61.3983C75.9065 59.2088 75.8719 56.9099 75.2478 54.7382C73.8588 49.555 70.0647 46.2199 66.6096 47.146L65.6476 47.404C67.4142 40.7676 67.2176 33.7613 65.0816 27.2345C64.0214 23.7894 62.4604 20.519 60.4485 17.5282C60.2645 17.2757 60.0105 17.0827 59.7179 16.9733C59.4252 16.8638 59.1069 16.8428 58.8024 16.9126C58.4979 16.9825 58.2206 17.1403 58.005 17.3663C57.7893 17.5924 57.6448 17.8768 57.5894 18.1843C57.1517 20.6502 55.9844 22.9281 54.2383 24.7234C55.3643 15.2482 52.2883 9.43505 49.2862 6.12296C47.0475 3.62628 44.1869 1.76777 40.996 0.736833C40.694 0.655444 40.3747 0.664642 40.0779 0.763283C39.7811 0.861924 39.5198 1.04565 39.3266 1.29162C39.1334 1.53758 39.0168 1.83493 38.9912 2.14666C38.9657 2.45839 39.0324 2.77075 39.1829 3.04489C42.751 9.53705 41.174 11.6811 38.5579 15.2202C37.2872 16.8331 36.2049 18.5858 35.3319 20.4443C33.9559 17.5796 31.7978 15.1626 29.1067 13.4721C28.8392 13.2936 28.524 13.2001 28.2024 13.2039C27.8808 13.2076 27.5678 13.3086 27.3046 13.4934C27.0414 13.6782 26.8402 13.9383 26.7274 14.2395C26.6146 14.5407 26.5955 14.8689 26.6726 15.1812C28.2477 21.5413 25.1226 25.2274 21.8135 29.1295C18.0224 33.6016 13.7793 38.6088 17.6214 47.485L16.3574 47.145C12.9023 46.2189 9.10721 49.554 7.71918 54.7372C6.9068 57.3945 7.06668 60.2542 8.17019 62.8044L4.83711 63.6974C3.89207 64.0114 3.04579 64.5676 2.38257 65.3105C1.71935 66.0533 1.26232 66.957 1.05701 67.9315C0.53768 70.1254 0.570981 72.4139 1.15393 74.5917C1.73688 76.7696 2.85124 78.7687 4.39709 80.4098C5.50363 81.5761 7.01997 82.2671 8.6262 82.3368C9.01928 82.3367 9.41064 82.2849 9.79023 82.1828L41.483 73.6906L73.1778 82.1828C73.56 82.2853 73.9541 82.3371 74.3498 82.3368C77.4499 82.3368 80.583 79.1917 81.816 74.5906C82.4401 72.4185 82.4747 70.1194 81.916 67.9295L81.915 67.9315ZM67.4366 50.231C68.8937 49.841 71.2237 52.0411 72.1688 55.5672C72.2428 55.8442 72.3058 56.1222 72.3578 56.4002L69.4137 57.1892C69.2083 57.2405 69.0151 57.3322 68.8455 57.4589C68.6758 57.5856 68.5332 57.7449 68.4257 57.9273C68.3183 58.1098 68.2482 58.3118 68.2197 58.5216C68.1911 58.7314 68.2046 58.9448 68.2594 59.1493C68.3141 59.3538 68.4091 59.5454 68.5386 59.7129C68.6682 59.8803 68.8298 60.0203 69.0141 60.1246C69.1983 60.229 69.4015 60.2956 69.6118 60.3206C69.822 60.3456 70.0351 60.3285 70.2387 60.2703L72.4628 59.6703C72.4209 59.9572 72.3604 60.2412 72.2818 60.5203C72.2133 60.9602 72.0364 61.3761 71.767 61.7305C71.4976 62.0849 71.1442 62.3667 70.7387 62.5503L13.5923 77.8627C14.133 75.6996 14.0926 73.4321 13.4753 71.2896C12.9353 69.1276 11.8389 67.1445 10.2952 65.5374L67.4366 50.231ZM24.2466 31.1916C27.0937 27.8335 30.2467 24.1114 30.2897 18.5913C32.6898 21.1573 33.7218 24.2664 33.7218 28.5965C33.7218 29.0195 33.8899 29.4252 34.189 29.7244C34.4881 30.0235 34.8938 30.1916 35.3169 30.1916C35.7399 30.1916 36.1456 30.0235 36.4447 29.7244C36.7438 29.4252 36.9119 29.0195 36.9119 28.5965C36.9119 22.8334 39.0549 19.9273 41.127 17.1182C43.3991 14.0372 45.5681 11.0951 43.7921 5.59495C44.9872 6.37754 46.0742 7.31393 47.0251 8.38002C51.1642 13.0371 52.3083 19.6683 50.4252 28.0895C50.3598 28.3824 50.3784 28.6878 50.4788 28.9706C50.5792 29.2534 50.7573 29.5021 50.9927 29.6883C51.2281 29.8744 51.5113 29.9903 51.8096 30.0227C52.1079 30.0551 52.4094 30.0027 52.6793 29.8715C55.7506 28.197 58.1889 25.5627 59.6214 22.3714C60.6087 24.2772 61.4297 26.2646 62.0755 28.3115C64.2487 34.8289 64.2259 41.8789 62.0105 48.382L52.1933 51.0121C52.2833 50.432 52.3563 49.855 52.4093 49.284C52.4402 48.8671 52.3062 48.4547 52.0361 48.1356C51.766 47.8164 51.3814 47.6161 50.9651 47.5777C50.5488 47.5393 50.1341 47.6659 49.8102 47.9302C49.4862 48.1945 49.2791 48.5755 49.2332 48.991C49.1397 49.9768 48.9898 50.9564 48.7842 51.9251L41.484 53.8811L32.2318 51.4021C31.8198 49.9736 31.7191 48.4734 31.9365 47.0027C32.1538 45.532 32.6842 44.1251 33.4918 42.8769C34.0601 44.5265 35.0894 45.9786 36.4579 47.061C36.7306 47.2626 37.0604 47.3723 37.3996 47.3743C37.7388 47.3762 38.0698 47.2704 38.3449 47.072C38.6449 46.857 44.5551 42.4819 45.6451 35.0047C45.8921 35.3577 46.1391 35.7327 46.3811 36.1317C46.6117 36.4673 46.9619 36.7021 47.36 36.7878C47.7581 36.8735 48.1739 36.8037 48.5222 36.5928C48.8705 36.3818 49.1249 36.0456 49.2333 35.6531C49.3417 35.2606 49.2958 34.8415 49.1052 34.4817C48.0259 32.6995 46.7143 31.0689 45.2051 29.6325C44.9666 29.4081 44.6649 29.2625 44.3408 29.2155C44.0167 29.1685 43.6861 29.2224 43.3937 29.3698C43.1013 29.5173 42.8614 29.7512 42.7065 30.0397C42.5516 30.3282 42.4893 30.6574 42.528 30.9826C42.9273 34.4591 42.0018 37.9583 39.936 40.7828C39.2187 41.8133 38.3966 42.7667 37.4829 43.6279C36.5969 42.3351 36.0492 40.8409 35.8899 39.2818C35.8672 38.9773 35.7577 38.6857 35.5742 38.4416C35.3907 38.1975 35.141 38.0113 34.8548 37.9049C34.5686 37.7986 34.2579 37.7766 33.9595 37.8416C33.6612 37.9066 33.3878 38.0559 33.1718 38.2718C29.5867 41.8578 28.1777 45.7819 28.8267 50.482L21.7395 48.582C16.8224 39.9448 20.1075 36.0697 24.2476 31.1816L24.2466 31.1916ZM10.7573 55.7462L13.7973 56.5612C14.2032 56.6626 14.6327 56.6004 14.9932 56.3881C15.3537 56.1758 15.6163 55.8304 15.7245 55.4263C15.8327 55.0221 15.7778 54.5917 15.5717 54.2276C15.3655 53.8636 15.0246 53.5952 14.6223 53.4801L11.9743 52.7701C13.0743 50.9461 14.5183 49.954 15.5344 50.226L35.3249 55.5262L11.3753 61.9453C10.4932 60.8553 10.0632 58.4912 10.7573 55.7462ZM4.23709 73.7666C3.76828 72.152 3.72932 70.4428 4.12409 68.8085C4.19275 68.3697 4.36933 67.9549 4.63796 67.6013C4.90659 67.2476 5.25886 66.9663 5.66313 66.7824C5.7767 66.7526 5.8937 66.7378 6.01113 66.7384C6.78305 66.8207 7.49637 67.1884 8.01118 67.7695C9.17018 68.9874 9.99096 70.4869 10.3922 72.1196C11.3373 75.6467 10.4172 78.7197 8.96221 79.1068C8.51928 79.1504 8.07246 79.0831 7.66203 78.9109C7.2516 78.7388 6.89045 78.4672 6.61115 78.1207C5.45211 76.9028 4.63133 75.4033 4.23009 73.7706L4.23709 73.7666ZM54.1383 70.3005C54.1633 70.3085 54.1873 70.3175 54.2123 70.3245L59.1294 71.6416C59.5129 71.745 59.9212 71.7015 60.2743 71.5197C60.6274 71.3378 60.9 71.0307 61.0385 70.6584C61.177 70.2862 61.1715 69.8756 61.0232 69.5071C60.8748 69.1387 60.5943 68.8389 60.2365 68.6665L71.5637 65.6314C71.7797 65.5734 71.991 65.4992 72.1958 65.4094L72.6728 65.5374C71.1586 67.1665 70.0662 69.1415 69.4909 71.2899C68.9157 73.4384 68.8751 75.695 69.3727 77.8627L47.6462 72.0406L54.1383 70.3005ZM78.7389 73.7666C77.7939 77.2937 75.4588 79.4928 74.0068 79.1027C72.5548 78.7127 71.6317 75.6417 72.5768 72.1156C72.978 70.4829 73.7988 68.9833 74.9578 67.7655C75.4726 67.1844 76.1859 66.8166 76.9579 66.7345C77.0753 66.7339 77.1923 66.7487 77.3059 66.7785C77.7114 66.9621 78.0648 67.2439 78.3342 67.5983C78.6036 67.9527 78.7805 68.3686 78.8489 68.8085C79.2436 70.4425 79.2046 72.1513 78.7359 73.7656L78.7389 73.7666Z" fill="#3B3735"/>
<path id="Vector_9" d="M48.8152 41.9688C48.8142 42.2855 48.9072 42.5953 49.0824 42.8591C49.2576 43.1228 49.5071 43.3287 49.7994 43.4506C50.0917 43.5724 50.4136 43.6048 50.7243 43.5437C51.0349 43.4825 51.3205 43.3305 51.5448 43.1069C51.769 42.8834 51.9219 42.5983 51.9841 42.2878C52.0462 41.9773 52.0148 41.6553 51.8939 41.3627C51.7729 41.07 51.5678 40.8198 51.3046 40.6438C51.0414 40.4678 50.7318 40.3738 50.4152 40.3738C50.2053 40.373 49.9973 40.4137 49.8031 40.4935C49.609 40.5733 49.4325 40.6907 49.2838 40.8389C49.1352 40.9871 49.0172 41.1632 48.9368 41.3571C48.8564 41.551 48.8151 41.7589 48.8152 41.9688Z" fill="#3B3735"/>
<path id="Vector_10" d="M20.6274 70.6944C20.7673 70.6942 20.9064 70.6757 21.0414 70.6394L24.5544 69.6984C24.7599 69.6471 24.953 69.5554 25.1226 69.4287C25.2923 69.302 25.435 69.1427 25.5424 68.9603C25.6498 68.7778 25.7199 68.5758 25.7484 68.3661C25.777 68.1563 25.7635 67.9429 25.7087 67.7383C25.654 67.5338 25.559 67.3422 25.4295 67.1748C25.2999 67.0073 25.1383 66.8674 24.954 66.763C24.7698 66.6587 24.5666 66.5921 24.3564 66.5671C24.1461 66.5421 23.933 66.5592 23.7294 66.6174L20.2164 67.5584C19.8424 67.6583 19.5175 67.8908 19.3023 68.2125C19.087 68.5343 18.9961 68.9233 19.0466 69.3072C19.097 69.691 19.2853 70.0434 19.5763 70.2986C19.8674 70.5538 20.2403 70.6945 20.6274 70.6944Z" fill="#3B3735"/>
<path id="Vector_11" d="M44.8661 63.5103C45.0059 63.5101 45.1451 63.4916 45.2801 63.4553L48.7931 62.5143C49.1953 62.3993 49.5362 62.1308 49.7424 61.7668C49.9485 61.4028 50.0034 60.9723 49.8952 60.5682C49.787 60.1641 49.5244 59.8187 49.1639 59.6064C48.8034 59.3941 48.3739 59.3319 47.968 59.4333L44.455 60.3743C44.088 60.481 43.7712 60.7156 43.5622 61.0357C43.3531 61.3557 43.2656 61.74 43.3154 62.1191C43.3652 62.4981 43.5491 62.8467 43.8337 63.1019C44.1183 63.3571 44.4849 63.502 44.8671 63.5103H44.8661Z" fill="#3B3735"/>
</g>
</g>
<defs>
<clipPath id="clip0_1_51">
<rect width="81.72" height="81.656" fill="white" transform="translate(0.640015 0.681885)"/>
</clipPath>
</defs>
</svg>
