<svg width="85" height="85" viewBox="0 0 85 85" fill="none" xmlns="http://www.w3.org/2000/svg">
<g id="fish.svg" clip-path="url(#clip0_1_155)">
<g id="Group">
<path id="Vector" d="M71.3073 17.0302C71.3073 17.0302 72.1933 22.6732 67.3413 34.1092C66.5913 35.8402 65.7193 37.7212 64.6833 39.7382C62.3807 44.0642 59.3038 47.9309 55.6053 51.1462C53.3809 53.1323 50.9762 54.9066 48.4223 56.4462V56.4602C41.1573 60.8492 33.7973 62.6752 30.2123 60.9172L28.8633 60.2682C28.8633 60.2682 29.8033 48.6282 34.0703 40.3272C35.6594 37.1576 38.0875 34.4846 41.0903 32.5992C45.6293 29.6822 50.9993 28.5512 55.8383 26.8992C60.5683 25.2912 64.7793 23.1922 67.1923 18.4762L68.6103 15.7092L69.9593 16.3772L71.3073 17.0302Z" fill="#FFD2C6"/>
<g id="Group_2">
<path id="Vector_2" d="M71.5545 11.3871C71.5513 12.6407 71.2474 13.8752 70.6685 14.9871L69.9595 16.3771L68.6105 15.7091L63.2265 13.0781C62.6941 12.8072 62.2214 12.4323 61.8365 11.9755C61.4516 11.5186 61.1622 10.9893 60.9855 10.4186C60.8088 9.84798 60.7484 9.24769 60.8078 8.65329C60.8672 8.05888 61.0453 7.48244 61.3315 6.95809C61.7287 6.1766 62.3328 5.51917 63.078 5.05751C63.8232 4.59585 64.6809 4.34769 65.5575 4.34009C66.2283 4.34145 66.89 4.49533 67.4925 4.79009C68.7247 5.39311 69.7605 6.3334 70.4795 7.5017C71.1986 8.67 71.5713 10.0184 71.5545 11.3901V11.3871Z" fill="#E76F51"/>
<path id="Vector_3" d="M83.3859 15.3263C83.388 16.0812 83.2053 16.8252 82.8539 17.4933C82.3116 18.5858 81.3643 19.4236 80.2136 19.8284C79.0629 20.2331 77.7997 20.1728 76.6929 19.6603L71.3099 17.0303L69.9609 16.3763L70.6699 14.9863C71.3334 13.6846 72.3411 12.5897 73.5833 11.8207C74.8256 11.0516 76.2549 10.6378 77.7159 10.6243C78.8355 10.6257 79.9401 10.8822 80.9459 11.3743C81.6829 11.7374 82.3026 12.3008 82.7342 13C83.1657 13.6991 83.3916 14.5047 83.3859 15.3263Z" fill="#E76F51"/>
<path id="Vector_4" d="M67.5197 34.2034C70.4907 35.6614 70.6817 41.1684 67.9287 46.5114C65.1757 51.8544 60.5407 55.0034 57.5697 53.5584C57.0982 53.3073 56.6817 52.9644 56.3446 52.55C56.0075 52.1357 55.7566 51.6581 55.6067 51.1454C59.3058 47.9303 62.3835 44.0636 64.6867 39.7374C65.7227 37.7204 66.5947 35.8374 67.3447 34.1084L67.3587 34.1224L67.5197 34.2034Z" fill="#E76F51"/>
<path id="Vector_5" d="M53.8095 18.3111C56.0855 19.3741 56.7265 22.7001 55.7315 26.5571L55.8405 26.8981C51.0015 28.5471 45.6315 29.6791 41.0925 32.5981L41.0515 32.1981C41.252 29.8391 41.9489 27.549 43.0965 25.4781C45.9725 20.0941 50.7705 16.8781 53.8095 18.3091V18.3111Z" fill="#E76F51"/>
</g>
<path id="Vector_6" d="M49.7345 39.3425C51.9565 40.4325 52.1745 44.4125 50.2115 48.2295C49.4808 49.6907 48.4553 50.9845 47.1995 52.0295C46.0596 49.2035 44.2389 46.7031 41.8995 44.7505C41.9815 44.5865 42.0635 44.4375 42.1445 44.2735C44.1075 40.4575 47.5015 38.2485 49.7365 39.3395L49.7345 39.3425Z" fill="#FC6E51"/>
<path id="Vector_7" d="M23.098 26.2983C23.3068 27.1411 23.4119 28.0061 23.411 28.8743C23.411 31.7663 22.2622 34.5397 20.2173 36.5846C18.1724 38.6295 15.399 39.7783 12.507 39.7783C9.61511 39.7783 6.84164 38.6295 4.79674 36.5846C2.75184 34.5397 1.60303 31.7663 1.60303 28.8743C1.60215 28.0061 1.70727 27.1411 1.91603 26.2983C5.18873 27.99 8.81897 28.8733 12.503 28.8743C16.1898 28.8746 19.8229 27.9913 23.098 26.2983Z" fill="#FFB63B"/>
<path id="Vector_8" d="M12.508 17.97C14.9522 17.9667 17.3263 18.7866 19.2477 20.2974C21.1691 21.8082 22.5257 23.922 23.099 26.298C19.8254 27.9906 16.1938 28.874 12.5085 28.874C8.82323 28.874 5.19161 27.9906 1.91803 26.298C2.4913 23.9221 3.84782 21.8085 5.76897 20.2977C7.69012 18.7869 10.064 17.9669 12.508 17.97Z" fill="#E76F51"/>
<path id="Vector_9" d="M84.4473 13.471C84.2119 12.7503 83.8338 12.0843 83.3356 11.5127C82.8374 10.9411 82.2292 10.4756 81.5473 10.144C80.1759 9.49087 78.6612 9.19649 77.145 9.28849C75.6287 9.38049 74.1607 9.85585 72.8783 10.67C72.8238 9.95859 72.6842 9.25623 72.4623 8.57805C72.1071 7.49264 71.5374 6.48968 70.787 5.6287C70.0367 4.76772 69.121 4.06629 68.0943 3.56605C66.6645 2.90082 65.0318 2.81838 63.5423 3.33618C62.0527 3.85399 60.8232 4.93136 60.1143 6.34005C59.7436 7.04827 59.5189 7.82376 59.4536 8.62048C59.3884 9.41721 59.4838 10.2189 59.7343 10.978C59.9699 11.6984 60.3481 12.3639 60.8463 12.9349C61.3445 13.506 61.9526 13.9709 62.6343 14.302L66.7673 16.323L65.9813 17.853C64.1113 21.491 61.0813 23.413 57.4283 24.859C57.8833 21.152 56.7863 18.195 54.3903 17.073C50.6433 15.319 45.1533 18.728 41.8903 24.835C40.6899 27.0136 39.9487 29.415 39.7123 31.891C36.8024 33.8729 34.4423 36.5599 32.8523 39.701C28.5143 48.138 27.5433 59.668 27.5043 60.156L27.4293 61.081L29.6103 62.148C30.8971 62.729 32.299 63.0104 33.7103 62.971C39.6323 62.971 48.0723 59.19 55.1993 53.249C55.6399 53.8823 56.2297 54.3974 56.9164 54.7488C57.6032 55.1002 58.366 55.2772 59.1373 55.264C62.5373 55.264 66.5803 52.113 69.1373 47.134C71.1423 43.234 71.7613 39.162 70.7903 36.234C70.4688 35.1899 69.8537 34.2602 69.0183 33.556C71.8413 26.629 72.5693 21.85 72.7003 19.227L76.0823 20.88C76.8693 21.2641 77.7336 21.4632 78.6093 21.462C79.7379 21.4552 80.8431 21.1389 81.8044 20.5475C82.7657 19.9561 83.5463 19.1123 84.0613 18.108C84.4331 17.4004 84.6588 16.6253 84.7251 15.8287C84.7914 15.0322 84.697 14.2304 84.4473 13.471ZM62.3193 10.119C62.1835 9.70248 62.1328 9.26283 62.1704 8.82628C62.2081 8.38973 62.3332 7.96523 62.5383 7.57805C62.9191 6.80207 63.5865 6.20448 64.3997 5.91152C65.2129 5.61856 66.1082 5.65317 66.8963 6.00805C67.5971 6.34979 68.222 6.82891 68.7339 7.41693C69.2458 8.00496 69.6343 8.6899 69.8763 9.43105C70.1408 10.2388 70.2401 11.0916 70.1683 11.9385C70.0964 12.7855 69.855 13.6093 69.4583 14.361L69.3583 14.556L69.2143 14.485L63.8313 11.852C63.4764 11.6783 63.1599 11.4351 62.9006 11.1369C62.6412 10.8388 62.4442 10.4916 62.3213 10.116L62.3193 10.119ZM44.2933 26.119C47.0013 21.046 51.1783 18.579 53.2323 19.542C54.7323 20.242 55.2123 22.783 54.4753 25.903C53.5853 26.192 52.6753 26.473 51.7373 26.76C48.6615 27.6136 45.6632 28.7252 42.7743 30.083C43.1155 28.7038 43.6261 27.372 44.2943 26.118L44.2933 26.119ZM43.5833 44.499C45.2833 41.499 47.8553 39.938 49.1283 40.561C49.3388 40.6797 49.5229 40.8399 49.6695 41.032C49.8162 41.224 49.9222 41.4438 49.9813 41.678C50.4733 43.162 50.0903 45.486 49.0023 47.599C48.6085 48.3582 48.1319 49.0716 47.5813 49.726C46.5426 47.7771 45.1914 46.0117 43.5813 44.5L43.5833 44.499ZM68.2073 37.099C68.9283 39.276 68.3453 42.726 66.7163 45.89C64.1443 50.89 60.1543 53.298 58.1703 52.33C57.7856 52.128 57.4672 51.8193 57.2533 51.441C60.7474 48.2692 63.6697 44.5198 65.8923 40.357C66.6233 38.937 67.2523 37.604 67.8373 36.313C67.9916 36.5591 68.1161 36.8226 68.2083 37.098L68.2073 37.099ZM63.4683 39.111C60.1172 45.2707 55.2531 50.4758 49.3343 54.236C49.1773 53.625 48.9813 53.036 48.7703 52.446C49.8468 51.4 50.7435 50.1837 51.4243 48.846C52.8723 46.031 53.2983 43.031 52.5653 40.821C52.3951 40.2418 52.1089 39.7031 51.7242 39.2378C51.3395 38.7725 50.8643 38.3901 50.3273 38.114C47.6013 36.78 43.8323 38.794 41.4403 42.739C40.5735 42.1126 39.6575 41.5571 38.7013 41.078L37.5013 43.527C39.9046 44.6975 42.003 46.4106 43.6308 48.5309C45.2586 50.6513 46.3714 53.121 46.8813 55.745C40.1653 59.587 33.6463 61.093 30.8113 59.702L30.3183 59.461C30.6383 56.59 31.8733 47.58 35.2823 40.95C39.1233 33.479 45.9443 31.39 52.5413 29.368C58.7203 27.475 65.1083 25.519 68.4093 19.099L69.2203 17.523L70.0043 17.906C70.0523 20.02 69.6483 27.098 63.4723 39.106L63.4683 39.111ZM81.6423 16.866C81.2622 17.6421 80.5951 18.2398 79.7821 18.5328C78.9692 18.8258 78.0741 18.7911 77.2863 18.436L71.9783 15.836L71.8083 15.753L71.8833 15.607C72.6263 14.1026 73.9256 12.9464 75.5061 12.3831C77.0866 11.8198 78.8243 11.8937 80.3513 12.589C80.7066 12.7622 81.0232 13.0052 81.2825 13.3035C81.5418 13.6017 81.7383 13.9492 81.8603 14.325C81.9968 14.7415 82.0478 15.1812 82.0104 15.6178C81.9729 16.0544 81.8477 16.479 81.6423 16.866Z" fill="#3B3735"/>
<path id="Vector_10" d="M26.894 72.262L32.953 68.222V72.491C32.953 75.0214 31.9478 77.4482 30.1585 79.2375C28.3692 81.0268 25.9424 82.032 23.412 82.032C20.8816 82.032 18.4548 81.0268 16.6655 79.2375C14.8762 77.4482 13.871 75.0214 13.871 72.491V41.061C16.8693 40.7267 19.6391 39.2989 21.6507 37.0506C23.6622 34.8023 24.7744 31.8913 24.7744 28.8745C24.7744 25.8576 23.6622 22.9467 21.6507 20.6984C19.6391 18.4501 16.8693 17.0222 13.871 16.688V0.250977H11.14V16.688C8.14175 17.0222 5.37194 18.4501 3.36036 20.6984C1.34878 22.9467 0.236633 25.8576 0.236633 28.8745C0.236633 31.8913 1.34878 34.8023 3.36036 37.0506C5.37194 39.2989 8.14175 40.7267 11.14 41.061V72.491C11.14 75.7444 12.4324 78.8645 14.7329 81.1651C17.0334 83.4656 20.1536 84.758 23.407 84.758C26.6604 84.758 29.7806 83.4656 32.0811 81.1651C34.3816 78.8645 35.674 75.7444 35.674 72.491V63.13L25.374 69.994L26.894 72.262ZM12.507 19.333C14.4513 19.3356 16.3484 19.9317 17.9447 21.0416C19.541 22.1515 20.7605 23.7223 21.44 25.544C18.6416 26.8396 15.5948 27.5107 12.511 27.5107C9.42723 27.5107 6.3804 26.8396 3.58201 25.544C4.26128 23.723 5.48012 22.1526 7.07565 21.0428C8.67119 19.9329 10.5674 19.3364 12.511 19.333H12.507ZM2.96601 28.874C2.96601 28.679 2.98401 28.49 2.99501 28.297C6.00312 29.5767 9.23851 30.2362 12.5075 30.2362C15.7765 30.2362 19.0119 29.5767 22.02 28.297C22.031 28.489 22.049 28.679 22.049 28.874C22.049 31.4044 21.0438 33.8312 19.2545 35.6205C17.4652 37.4098 15.0384 38.415 12.508 38.415C9.97758 38.415 7.55079 37.4098 5.7615 35.6205C3.97222 33.8312 2.96601 31.4044 2.96601 28.874Z" fill="#3B3735"/>
<path id="Vector_11" d="M36.9944 51.5046C37.8229 51.5046 38.4944 51.0569 38.4944 50.5046C38.4944 49.9524 37.8229 49.5046 36.9944 49.5046C36.166 49.5046 35.4944 49.9524 35.4944 50.5046C35.4944 51.0569 36.166 51.5046 36.9944 51.5046Z" fill="#3B3735"/>
</g>
</g>
<defs>
<clipPath id="clip0_1_155">
<rect width="84.509" height="84.507" fill="white" transform="translate(0.23999 0.250977)"/>
</clipPath>
</defs>
</svg>
