<svg width="25" height="25" viewBox="0 0 25 25" fill="none" xmlns="http://www.w3.org/2000/svg">
<g clip-path="url(#clip0_1_263)">
<path d="M20.7186 16.2262L20.7391 16.2467L12.3856 24.6002L4.53661 16.7512C3.48191 15.6326 2.90459 14.147 2.92715 12.6097C2.94971 11.0724 3.57037 9.60435 4.65744 8.51712C5.6598 7.51494 6.98902 6.90647 8.40264 6.8027C9.81626 6.69893 11.2201 7.10677 12.358 7.95184C13.4862 7.00756 14.9261 6.51819 16.396 6.57946C17.8659 6.64072 19.26 7.24822 20.3057 8.2831C21.3514 9.31798 21.9733 10.7058 22.0498 12.175C22.1263 13.6442 21.6511 15.0883 20.7186 16.2262Z" fill="white" stroke="#E76F51" stroke-width="1.49964"/>
</g>
<defs>
<clipPath id="clip0_1_263">
<rect width="24.02" height="24.02" fill="white" transform="translate(0.47998 0.580078)"/>
</clipPath>
</defs>
</svg>
