<svg width="56" height="55" viewBox="0 0 56 55" fill="none" xmlns="http://www.w3.org/2000/svg">
<g clip-path="url(#clip0_1_10)">
<path d="M28 55C43.1878 55 55.5 42.6878 55.5 27.5C55.5 12.3122 43.1878 0 28 0C12.8122 0 0.5 12.3122 0.5 27.5C0.5 42.6878 12.8122 55 28 55Z" fill="#E76F51"/>
<path d="M38.9461 18.1908C38.9063 18.6586 38.795 19.1175 38.6161 19.5515C38.4349 19.9864 38.1691 20.3809 37.834 20.712C37.4726 21.0658 37.0475 21.348 36.5811 21.5436C36.0206 21.7748 35.4262 21.9134 34.8211 21.9539C34.1767 22.0121 33.5275 21.9903 32.8884 21.889C32.2622 21.7886 31.6388 21.6734 31.0184 21.5436C30.398 21.4138 29.7828 21.295 29.1726 21.1872C28.5642 21.0778 27.9447 21.0435 27.3279 21.0849C26.8054 21.1288 26.2903 21.2375 25.7945 21.4083C25.3064 21.5723 24.8526 21.8247 24.4558 22.153C24.057 22.4902 23.7364 22.9102 23.5164 23.3839C23.2672 23.9365 23.1454 24.538 23.16 25.1439C23.1522 25.607 23.2406 26.0666 23.4196 26.4936C23.5728 26.8564 23.7725 27.1977 24.0136 27.5089C24.1959 27.7493 24.4102 27.9636 24.6505 28.1458C24.8522 28.2925 24.9816 28.3574 25.0388 28.3405C24.0596 28.6349 23.0276 28.71 22.016 28.5605C21.1946 28.4324 20.4208 28.0923 19.7709 27.5738C19.1682 27.0798 18.7065 26.4355 18.4322 25.706C18.1412 24.9347 18.0375 24.1053 18.1297 23.286C18.202 22.469 18.4408 21.6753 18.8315 20.954C19.2047 20.2729 19.7117 19.6743 20.322 19.194C20.9668 18.6941 21.6938 18.3103 22.4703 18.0599C23.3359 17.7788 24.2379 17.6261 25.1477 17.6067C26.0205 17.5777 26.8937 17.6515 27.7492 17.8267C28.5911 17.9998 29.4154 18.2015 30.222 18.4317C31.0287 18.662 31.8097 18.882 32.565 19.0917C33.2921 19.2953 34.0368 19.429 34.7892 19.491C35.5037 19.5498 36.2229 19.4877 36.9166 19.3073C37.6688 19.0932 38.3626 18.7115 38.9461 18.1908ZM26.8109 24.7347C26.8395 24.6482 26.8934 24.4755 26.9726 24.2166C27.0541 23.9455 27.1083 23.6669 27.1343 23.385C27.1635 23.0962 27.1453 22.8045 27.0804 22.5215C27.0542 22.3908 26.9989 22.2676 26.9185 22.1611C26.8382 22.0547 26.7348 21.9677 26.6162 21.9066C26.9044 21.9213 27.0771 21.9286 27.1343 21.9286H27.6953C28.5126 21.9257 29.3178 22.1261 30.0383 22.5116C30.5567 22.8061 30.9858 23.2352 31.2802 23.7535C31.5353 24.2204 31.6689 24.7439 31.6685 25.2759C31.6754 25.7615 31.601 26.2449 31.4485 26.7059L29.056 33.7822C29.0274 33.8688 28.9735 34.0415 28.8943 34.3003C28.8129 34.5715 28.7587 34.8501 28.7326 35.1319C28.7035 35.4208 28.7217 35.7125 28.7865 35.9954C28.8128 36.1262 28.8681 36.2494 28.9485 36.3559C29.0288 36.4623 29.1321 36.5493 29.2507 36.6103C28.9625 36.5957 28.7898 36.5883 28.7326 36.5883H28.1716C27.3541 36.5902 26.5489 36.3888 25.8286 36.002C25.3109 35.7088 24.8819 35.2812 24.5867 34.7645C24.3317 34.2977 24.1981 33.7742 24.1984 33.2421C24.1916 32.7566 24.266 32.2732 24.4184 31.8121L26.8109 24.7347Z" fill="white"/>
</g>
<defs>
<clipPath id="clip0_1_10">
<rect width="55" height="55" fill="white" transform="translate(0.5)"/>
</clipPath>
</defs>
</svg>
