<svg width="61" height="79" viewBox="0 0 61 79" fill="none" xmlns="http://www.w3.org/2000/svg">
<g id="paper.svg" clip-path="url(#clip0_1_112)">
<g id="Group">
<path id="Vector" d="M59.0611 72.0595H7.12244V1.94238L59.0611 2.12837V72.0595Z" fill="#E76F51"/>
<path id="Vector_2" d="M55.1654 72.0596H7.12244V5.83716H42.1815L55.1664 18.8221L55.1654 72.0596Z" fill="#FF8A6C"/>
<path id="Vector_3" d="M53.8676 77.0681H1.92896V7.13599H40.8827L53.8676 20.1209V77.0681Z" fill="#FFD2C6"/>
<path id="Vector_4" d="M40.8826 35.7017H13.6149V30.5081L17.5145 29.2082L20.1143 24.0146H33.0992L35.699 29.2082L40.8926 30.5081L40.8826 35.7017Z" fill="#FF8A6C"/>
<path id="Vector_5" d="M35.6891 29.2092H17.5106L20.1104 24.0156H33.0953L35.6891 29.2092Z" fill="#FF8A6C"/>
<path id="Vector_6" d="M19.9957 39.0769C21.9287 39.0769 23.4957 37.7338 23.4957 36.0769C23.4957 34.4201 21.9287 33.0769 19.9957 33.0769C18.0627 33.0769 16.4957 34.4201 16.4957 36.0769C16.4957 37.7338 18.0627 39.0769 19.9957 39.0769Z" fill="#EAEAE8"/>
<path id="Vector_7" d="M33.9944 39.0769C35.3751 39.0769 36.4944 37.7338 36.4944 36.0769C36.4944 34.4201 35.3751 33.0769 33.9944 33.0769C32.6137 33.0769 31.4944 34.4201 31.4944 36.0769C31.4944 37.7338 32.6137 39.0769 33.9944 39.0769Z" fill="#EAEAE8"/>
<path id="Vector_8" d="M20.1106 38.2999C19.5964 38.2999 19.0937 38.1474 18.6661 37.8617C18.2386 37.576 17.9053 37.1699 17.7085 36.6948C17.5117 36.2197 17.4603 35.697 17.5606 35.1926C17.6609 34.6883 17.9085 34.225 18.2721 33.8614C18.6358 33.4978 19.099 33.2501 19.6034 33.1498C20.1077 33.0495 20.6305 33.101 21.1056 33.2978C21.5807 33.4946 21.9868 33.8278 22.2724 34.2554C22.5581 34.6829 22.7106 35.1856 22.7106 35.6998C22.7106 36.3894 22.4367 37.0507 21.9491 37.5383C21.4615 38.0259 20.8002 38.2999 20.1106 38.2999ZM20.1106 34.3999C19.8535 34.3999 19.6022 34.4761 19.3884 34.6189C19.1746 34.7618 19.008 34.9648 18.9096 35.2024C18.8112 35.4399 18.7854 35.7013 18.8356 35.9535C18.8858 36.2056 19.0096 36.4373 19.1914 36.6191C19.3732 36.8009 19.6048 36.9247 19.857 36.9749C20.1092 37.025 20.3706 36.9993 20.6081 36.9009C20.8457 36.8025 21.0487 36.6359 21.1915 36.4221C21.3344 36.2083 21.4106 35.957 21.4106 35.6998C21.409 35.3561 21.2714 35.027 21.0277 34.7845C20.7841 34.542 20.4544 34.4059 20.1106 34.4059V34.3999Z" fill="#CBCBCB"/>
<path id="Vector_9" d="M34.3935 38.2999C33.8792 38.2999 33.3765 38.1474 32.949 37.8617C32.5214 37.576 32.1882 37.1699 31.9914 36.6948C31.7946 36.2197 31.7431 35.697 31.8434 35.1926C31.9437 34.6883 32.1914 34.225 32.555 33.8614C32.9186 33.4978 33.3819 33.2501 33.8862 33.1498C34.3906 33.0495 34.9133 33.101 35.3884 33.2978C35.8635 33.4946 36.2696 33.8278 36.5553 34.2554C36.841 34.6829 36.9935 35.1856 36.9935 35.6998C36.9935 36.3894 36.7195 37.0507 36.2319 37.5383C35.7443 38.0259 35.083 38.2999 34.3935 38.2999ZM34.3935 34.3999C34.1364 34.3999 33.885 34.4761 33.6712 34.6189C33.4574 34.7618 33.2908 34.9648 33.1924 35.2024C33.094 35.4399 33.0683 35.7013 33.1184 35.9535C33.1686 36.2056 33.2924 36.4373 33.4742 36.6191C33.656 36.8009 33.8877 36.9247 34.1398 36.9749C34.392 37.025 34.6534 36.9993 34.891 36.9009C35.1285 36.8025 35.3315 36.6359 35.4744 36.4221C35.6172 36.2083 35.6935 35.957 35.6935 35.6998C35.6919 35.3561 35.5542 35.027 35.3106 34.7845C35.067 34.542 34.7372 34.4059 34.3935 34.4059V34.3999Z" fill="#CBCBCB"/>
<path id="Vector_10" d="M25.3009 24.0156H27.9009V30.5086H25.3009V24.0156Z" fill="#0BAFEA"/>
<path id="Vector_11" d="M53.8676 20.1209H40.8827V7.13599L53.8676 20.1209Z" fill="#FFD2C6"/>
<g id="Group_2">
<path id="Vector_12" d="M30.4945 46.0927H11.0191C10.6744 46.0927 10.3438 45.9557 10.1 45.712C9.8562 45.4682 9.71924 45.1376 9.71924 44.7928C9.71924 44.448 9.8562 44.1174 10.1 43.8737C10.3438 43.6299 10.6744 43.4929 11.0191 43.4929H30.4965C30.8413 43.4929 31.1719 43.6299 31.4157 43.8737C31.6594 44.1174 31.7964 44.448 31.7964 44.7928C31.7964 45.1376 31.6594 45.4682 31.4157 45.712C31.1719 45.9557 30.8413 46.0927 30.4965 46.0927H30.4945Z" fill="#CBCBCB"/>
<path id="Vector_13" d="M17.5101 52.5854H13.6101C13.2653 52.5854 12.9346 52.4484 12.6908 52.2046C12.447 51.9608 12.3101 51.6301 12.3101 51.2853C12.3101 50.9406 12.447 50.6099 12.6908 50.3661C12.9346 50.1223 13.2653 49.9854 13.6101 49.9854H17.5101C17.8548 49.9854 18.1855 50.1223 18.4293 50.3661C18.6731 50.6099 18.8101 50.9406 18.8101 51.2853C18.8101 51.6301 18.6731 51.9608 18.4293 52.2046C18.1855 52.4484 17.8548 52.5854 17.5101 52.5854Z" fill="#CBCBCB"/>
<path id="Vector_14" d="M24.0053 52.5854H22.7053C22.3605 52.5854 22.0298 52.4484 21.786 52.2046C21.5422 51.9608 21.4053 51.6301 21.4053 51.2853C21.4053 50.9406 21.5422 50.6099 21.786 50.3661C22.0298 50.1223 22.3605 49.9854 22.7053 49.9854H24.0053C24.3501 49.9854 24.6807 50.1223 24.9245 50.3661C25.1683 50.6099 25.3053 50.9406 25.3053 51.2853C25.3053 51.6301 25.1683 51.9608 24.9245 52.2046C24.6807 52.4484 24.3501 52.5854 24.0053 52.5854Z" fill="#CBCBCB"/>
<path id="Vector_15" d="M40.8826 52.5851H29.1976C28.8528 52.5851 28.5222 52.4482 28.2784 52.2044C28.0347 51.9606 27.8977 51.63 27.8977 51.2852C27.8977 50.9405 28.0347 50.6099 28.2784 50.3661C28.5222 50.1223 28.8528 49.9854 29.1976 49.9854H40.8836C41.2284 49.9854 41.559 50.1223 41.8028 50.3661C42.0466 50.6099 42.1835 50.9405 42.1835 51.2852C42.1835 51.63 42.0466 51.9606 41.8028 52.2044C41.559 52.4482 41.2284 52.5851 40.8836 52.5851H40.8826Z" fill="#CBCBCB"/>
</g>
<path id="Vector_16" d="M26.9947 72.0735C31.1365 72.0735 34.4941 68.7159 34.4941 64.5741C34.4941 60.4323 31.1365 57.0747 26.9947 57.0747C22.8529 57.0747 19.4954 60.4323 19.4954 64.5741C19.4954 68.7159 22.8529 72.0735 26.9947 72.0735Z" fill="#FFB63B"/>
<path id="Vector_17" d="M27.8978 66.8651C27.5532 66.8652 27.2227 66.7286 26.9788 66.4851L24.379 63.8853C24.1514 63.6386 24.028 63.3134 24.0347 62.9777C24.0414 62.642 24.1777 62.322 24.4151 62.0846C24.6525 61.8472 24.9726 61.7109 25.3083 61.7042C25.6439 61.6974 25.9692 61.8208 26.2159 62.0485L28.0157 63.8484L37.5029 56.733C37.6385 56.6211 37.7954 56.5379 37.9641 56.4884C38.1328 56.4389 38.3097 56.4241 38.4843 56.445C38.6588 56.4658 38.8273 56.5218 38.9796 56.6096C39.1318 56.6975 39.2647 56.8153 39.3702 56.9559C39.4756 57.0965 39.5514 57.2571 39.5931 57.4279C39.6347 57.5987 39.6412 57.7761 39.6123 57.9495C39.5834 58.1229 39.5196 58.2886 39.4248 58.4367C39.33 58.5847 39.2062 58.712 39.0608 58.8108L28.6727 66.6011C28.4496 66.7703 28.1778 66.8629 27.8978 66.8651Z" fill="#02A437"/>
<path id="Vector_18" d="M44.7791 46.0929H35.6901C35.3453 46.0929 35.0147 45.956 34.7709 45.7122C34.5271 45.4684 34.3901 45.1377 34.3901 44.7929C34.3901 44.4481 34.5271 44.1175 34.7709 43.8737C35.0147 43.6299 35.3453 43.4929 35.6901 43.4929H44.7802C45.1249 43.4929 45.4556 43.6299 45.6994 43.8737C45.9432 44.1175 46.0801 44.4481 46.0801 44.7929C46.0801 45.1377 45.9432 45.4684 45.6994 45.7122C45.4556 45.956 45.1249 46.0929 44.7802 46.0929H44.7791Z" fill="#CBCBCB"/>
<path id="Vector_19" d="M46.0766 65.5702H42.1766C41.8318 65.5702 41.5012 65.4333 41.2574 65.1895C41.0136 64.9457 40.8766 64.615 40.8766 64.2702C40.8766 63.9254 41.0136 63.5948 41.2574 63.351C41.5012 63.1072 41.8318 62.9702 42.1766 62.9702H46.0766C46.4214 62.9702 46.7521 63.1072 46.9958 63.351C47.2396 63.5948 47.3766 63.9254 47.3766 64.2702C47.3766 64.615 47.2396 64.9457 46.9958 65.1895C46.7521 65.4333 46.4214 65.5702 46.0766 65.5702Z" fill="#CBCBCB"/>
<path id="Vector_20" d="M48.6737 70.7638H42.1827C41.8379 70.7638 41.5073 70.6269 41.2635 70.3831C41.0197 70.1393 40.8827 69.8086 40.8827 69.4638C40.8827 69.119 41.0197 68.7884 41.2635 68.5446C41.5073 68.3008 41.8379 68.1638 42.1827 68.1638H48.6757C49.0205 68.1638 49.3511 68.3008 49.5949 68.5446C49.8387 68.7884 49.9757 69.119 49.9757 69.4638C49.9757 69.8086 49.8387 70.1393 49.5949 70.3831C49.3511 70.6269 49.0205 70.7638 48.6757 70.7638H48.6737Z" fill="#CBCBCB"/>
<g id="Group_3">
<path id="Vector_21" d="M59.0661 0.82954L7.12946 0.643555C6.78471 0.643555 6.45408 0.780508 6.2103 1.02428C5.96653 1.26806 5.82957 1.59869 5.82957 1.94345V5.84312H1.9299C1.58515 5.84312 1.25451 5.98007 1.01073 6.22385C0.766956 6.46763 0.630005 6.79826 0.630005 7.14301V77.0682C0.630005 77.4129 0.766956 77.7435 1.01073 77.9873C1.25451 78.2311 1.58515 78.368 1.9299 78.368H53.8685C54.0392 78.368 54.2083 78.3344 54.366 78.2691C54.5237 78.2038 54.667 78.108 54.7877 77.9873C54.9084 77.8666 55.0042 77.7233 55.0695 77.5656C55.1348 77.4079 55.1684 77.2389 55.1684 77.0682V73.3575H59.0681C59.4129 73.3575 59.7435 73.2205 59.9873 72.9767C60.2311 72.733 60.368 72.4023 60.368 72.0576V2.12743C60.3677 1.95673 60.3339 1.78775 60.2683 1.63014C60.2027 1.47253 60.1068 1.32937 59.9859 1.20885C59.865 1.08833 59.7215 0.992805 59.5637 0.927722C59.4059 0.862639 59.2368 0.829277 59.0661 0.82954ZM52.5667 75.7693H3.22979V8.4339H39.5867V20.1209C39.5867 20.4657 39.7237 20.7963 39.9675 21.0401C40.2113 21.2839 40.5419 21.4208 40.8866 21.4208H52.5727L52.5667 75.7693ZM42.1785 10.2747L50.7298 18.826H42.1785V10.2747ZM57.7602 70.7697H55.1604V20.1209C55.1603 19.7767 55.0237 19.4466 54.7805 19.203L41.8006 6.21809C41.557 5.97489 41.2268 5.83825 40.8826 5.83812H8.42035V3.24334L57.7622 3.41932L57.7602 70.7697Z" fill="#3B3735"/>
<path id="Vector_22" d="M13.616 37.0006H16.4367C16.7074 37.7579 17.2055 38.4129 17.8629 38.8761C18.5203 39.3393 19.3048 39.5879 20.1089 39.5879C20.9131 39.5879 21.6976 39.3393 22.355 38.8761C23.0124 38.4129 23.5105 37.7579 23.7811 37.0006H30.7205C30.9912 37.7579 31.4893 38.4129 32.1467 38.8761C32.8041 39.3393 33.5886 39.5879 34.3927 39.5879C35.1969 39.5879 35.9814 39.3393 36.6388 38.8761C37.2962 38.4129 37.7943 37.7579 38.0649 37.0006H40.8857C41.2304 37.0006 41.5611 36.8637 41.8048 36.6199C42.0486 36.3761 42.1856 36.0455 42.1856 35.7007V30.5072C42.1853 30.2176 42.0884 29.9363 41.9102 29.7081C41.7319 29.4799 41.4826 29.3177 41.2017 29.2473L36.587 28.0934L34.2572 23.4338C34.1493 23.2182 33.9836 23.0369 33.7786 22.9102C33.5736 22.7834 33.3374 22.7161 33.0963 22.7158H20.1064C19.8654 22.7161 19.6292 22.7834 19.4241 22.9102C19.2191 23.0369 19.0534 23.2182 18.9455 23.4338L16.5887 28.1464L13.203 29.2743C12.9445 29.3606 12.7198 29.526 12.5605 29.7471C12.4011 29.9681 12.3153 30.2337 12.3151 30.5062V35.6997C12.3149 35.8706 12.3485 36.0398 12.4138 36.1977C12.4792 36.3556 12.575 36.4991 12.6958 36.6199C12.8166 36.7407 12.9601 36.8365 13.118 36.9019C13.2759 36.9672 13.4451 37.0008 13.616 37.0006ZM20.1084 37.0006C19.8513 37.0006 19.6 36.9244 19.3862 36.7816C19.1725 36.6387 19.0059 36.4357 18.9075 36.1982C18.8091 35.9607 18.7833 35.6993 18.8335 35.4471C18.8837 35.195 19.0075 34.9634 19.1893 34.7816C19.3711 34.5998 19.6027 34.476 19.8548 34.4258C20.107 34.3757 20.3683 34.4014 20.6059 34.4998C20.8434 34.5982 21.0464 34.7648 21.1892 34.9786C21.3321 35.1923 21.4083 35.4436 21.4083 35.7007C21.4083 35.8716 21.3746 36.0408 21.3092 36.1986C21.2437 36.3565 21.1478 36.4999 21.0269 36.6206C20.906 36.7413 20.7624 36.837 20.6045 36.9023C20.4465 36.9675 20.2773 37.0009 20.1064 37.0006H20.1084ZM34.3912 37.0006C34.1341 37.0006 33.8828 36.9244 33.669 36.7816C33.4553 36.6387 33.2887 36.4357 33.1903 36.1982C33.0919 35.9607 33.0662 35.6993 33.1163 35.4471C33.1665 35.195 33.2903 34.9634 33.4721 34.7816C33.6539 34.5998 33.8855 34.476 34.1376 34.4258C34.3898 34.3757 34.6511 34.4014 34.8887 34.4998C35.1262 34.5982 35.3292 34.7648 35.472 34.9786C35.6149 35.1923 35.6911 35.4436 35.6911 35.7007C35.6911 35.8715 35.6575 36.0406 35.5921 36.1984C35.5267 36.3562 35.4308 36.4995 35.31 36.6202C35.1892 36.741 35.0458 36.8367 34.888 36.902C34.7301 36.9672 34.562 37.0008 34.3912 37.0006ZM33.5913 27.9114H27.9018V25.3116H32.2934L33.5913 27.9114ZM20.9134 25.3116H25.305V27.9114H19.6155L20.9134 25.3116ZM14.9139 31.4411L17.7216 30.5052H35.5301L39.5848 31.5191V34.4008H38.0629C37.7923 33.6436 37.2942 32.9885 36.6368 32.5254C35.9794 32.0622 35.1949 31.8136 34.3907 31.8136C33.5866 31.8136 32.8021 32.0622 32.1447 32.5254C31.4873 32.9885 30.9892 33.6436 30.7185 34.4008H23.7791C23.5085 33.6436 23.0104 32.9885 22.353 32.5254C21.6956 32.0622 20.9111 31.8136 20.1069 31.8136C19.3028 31.8136 18.5183 32.0622 17.8609 32.5254C17.2035 32.9885 16.7054 33.6436 16.4347 34.4008H14.9159L14.9139 31.4411Z" fill="#3B3735"/>
<path id="Vector_23" d="M31.7934 44.7928C31.7934 44.6221 31.7598 44.4531 31.6944 44.2954C31.6291 44.1377 31.5334 43.9944 31.4127 43.8737C31.292 43.7529 31.1486 43.6572 30.9909 43.5919C30.8332 43.5266 30.6642 43.4929 30.4935 43.4929H11.0191C10.6744 43.4929 10.3438 43.6299 10.1 43.8737C9.8562 44.1174 9.71924 44.448 9.71924 44.7928C9.71924 45.1376 9.8562 45.4682 10.1 45.712C10.3438 45.9557 10.6744 46.0927 11.0191 46.0927H30.4965C30.8407 46.0919 31.1706 45.9546 31.4137 45.7109C31.6569 45.4672 31.7934 45.137 31.7934 44.7928Z" fill="#3B3735"/>
<path id="Vector_24" d="M17.5101 49.9854H13.6101C13.2653 49.9854 12.9346 50.1223 12.6908 50.3661C12.447 50.6099 12.3101 50.9406 12.3101 51.2853C12.3101 51.6301 12.447 51.9608 12.6908 52.2046C12.9346 52.4484 13.2653 52.5854 13.6101 52.5854H17.5101C17.8548 52.5854 18.1855 52.4484 18.4293 52.2046C18.6731 51.9608 18.8101 51.6301 18.8101 51.2853C18.8101 50.9406 18.6731 50.6099 18.4293 50.3661C18.1855 50.1223 17.8548 49.9854 17.5101 49.9854Z" fill="#3B3735"/>
<path id="Vector_25" d="M22.7053 49.9854C22.3605 49.9854 22.0298 50.1223 21.786 50.3661C21.5422 50.6099 21.4053 50.9406 21.4053 51.2853C21.4053 51.6301 21.5422 51.9608 21.786 52.2046C22.0298 52.4484 22.3605 52.5854 22.7053 52.5854H24.0053C24.3501 52.5854 24.6807 52.4484 24.9245 52.2046C25.1683 51.9608 25.3053 51.6301 25.3053 51.2853C25.3053 50.9406 25.1683 50.6099 24.9245 50.3661C24.6807 50.1223 24.3501 49.9854 24.0053 49.9854H22.7053Z" fill="#3B3735"/>
<path id="Vector_26" d="M42.1805 51.2852C42.1805 50.9405 42.0435 50.6099 41.7998 50.3661C41.556 50.1223 41.2254 49.9854 40.8806 49.9854H29.1976C28.8528 49.9854 28.5222 50.1223 28.2784 50.3661C28.0347 50.6099 27.8977 50.9405 27.8977 51.2852C27.8977 51.63 28.0347 51.9606 28.2784 52.2044C28.5222 52.4482 28.8528 52.5851 29.1976 52.5851H40.8836C41.2278 52.5843 41.5577 52.447 41.8008 52.2033C42.044 51.9596 42.1805 51.6295 42.1805 51.2852Z" fill="#3B3735"/>
<path id="Vector_27" d="M37.506 56.7378L35.0062 58.6136C33.5763 56.8238 31.5219 55.6417 29.2559 55.305C26.9899 54.9683 24.6805 55.502 22.792 56.7988C20.9035 58.0956 19.576 60.0592 19.0765 62.2949C18.5769 64.5307 18.9423 66.8726 20.0992 68.8499C21.2561 70.8271 23.1187 72.293 25.3125 72.9529C27.5063 73.6127 29.8685 73.4175 31.9242 72.4065C33.9799 71.3955 35.5766 69.6437 36.3932 67.5034C37.2099 65.363 37.1859 62.9928 36.3261 60.8695L39.0658 58.8156C39.3237 58.6029 39.4897 58.299 39.5294 57.967C39.569 57.6351 39.4792 57.3006 39.2787 57.0331C39.0781 56.7656 38.7822 56.5857 38.4525 56.5307C38.1227 56.4757 37.7845 56.5499 37.508 56.7378H37.506ZM34.3892 64.2692C34.3906 65.8015 33.8506 67.285 32.8645 68.4579C31.8783 69.6307 30.5095 70.4174 28.9997 70.6791C27.4899 70.9407 25.9362 70.6606 24.6129 69.888C23.2896 69.1154 22.2818 67.9001 21.7674 66.4567C21.2531 65.0133 21.2652 63.4346 21.8018 61.9993C22.3383 60.564 23.3648 59.3644 24.6998 58.6123C26.0349 57.8603 27.5927 57.604 29.0983 57.889C30.6039 58.1739 31.9604 58.9816 32.9284 60.1695L28.0188 63.8512L26.2189 62.0514C25.9722 61.8237 25.647 61.7003 25.3113 61.707C24.9756 61.7137 24.6556 61.8501 24.4182 62.0875C24.1808 62.3249 24.0444 62.6449 24.0377 62.9806C24.031 63.3162 24.1544 63.6415 24.3821 63.8882L26.9819 66.488C27.2031 66.7095 27.4969 66.8437 27.8092 66.8659C28.1215 66.8881 28.4313 66.7969 28.6817 66.609L34.1493 62.5093C34.3118 63.0832 34.3942 63.6767 34.3942 64.2732L34.3892 64.2692Z" fill="#3B3735"/>
<path id="Vector_28" d="M34.3901 44.7929C34.3901 45.1377 34.5271 45.4684 34.7709 45.7122C35.0147 45.956 35.3453 46.0929 35.6901 46.0929H44.7802C45.1249 46.0929 45.4556 45.956 45.6994 45.7122C45.9432 45.4684 46.0801 45.1377 46.0801 44.7929C46.0801 44.4481 45.9432 44.1175 45.6994 43.8737C45.4556 43.6299 45.1249 43.4929 44.7802 43.4929H35.6901C35.5194 43.4929 35.3504 43.5266 35.1927 43.5919C35.0349 43.6572 34.8916 43.753 34.7709 43.8737C34.6502 43.9944 34.5544 44.1377 34.4891 44.2954C34.4238 44.4532 34.3901 44.6222 34.3901 44.7929Z" fill="#3B3735"/>
<path id="Vector_29" d="M42.1827 62.9702C41.8379 62.9702 41.5073 63.1072 41.2635 63.351C41.0197 63.5948 40.8827 63.9254 40.8827 64.2702C40.8827 64.615 41.0197 64.9457 41.2635 65.1895C41.5073 65.4333 41.8379 65.5702 42.1827 65.5702H46.0827C46.4275 65.5702 46.7581 65.4333 47.0019 65.1895C47.2457 64.9457 47.3827 64.615 47.3827 64.2702C47.3827 63.9254 47.2457 63.5948 47.0019 63.351C46.7581 63.1072 46.4275 62.9702 46.0827 62.9702H42.1827Z" fill="#3B3735"/>
<path id="Vector_30" d="M48.6737 68.1638H42.1827C41.8379 68.1638 41.5073 68.3008 41.2635 68.5446C41.0197 68.7884 40.8827 69.119 40.8827 69.4638C40.8827 69.8086 41.0197 70.1393 41.2635 70.3831C41.5073 70.6269 41.8379 70.7638 42.1827 70.7638H48.6757C49.0205 70.7638 49.3511 70.6269 49.5949 70.3831C49.8387 70.1393 49.9757 69.8086 49.9757 69.4638C49.9757 69.119 49.8387 68.7884 49.5949 68.5446C49.3511 68.3008 49.0205 68.1638 48.6757 68.1638H48.6737Z" fill="#3B3735"/>
</g>
</g>
</g>
<defs>
<clipPath id="clip0_1_112">
<rect width="59.73" height="77.7225" fill="white" transform="translate(0.630005 0.643555)"/>
</clipPath>
</defs>
</svg>
