<svg width="83" height="73" viewBox="0 0 83 73" fill="none" xmlns="http://www.w3.org/2000/svg">
<g id="tickets.svg" clip-path="url(#clip0_1_74)">
<g id="Group">
<path id="Vector" d="M64.2092 17.3284C63.5714 17.9661 62.8143 18.472 61.9811 18.8171C61.1479 19.1622 60.2548 19.3399 59.3529 19.3399C58.4511 19.3399 57.558 19.1622 56.7248 18.8171C55.8916 18.472 55.1345 17.9661 54.4967 17.3284C53.859 16.6906 53.3531 15.9335 53.008 15.1003C52.6629 14.2671 52.4852 13.374 52.4852 12.4722C52.4852 11.5703 52.6629 10.6772 53.008 9.844C53.3531 9.01077 53.859 8.25368 54.4967 7.61596L48.3671 1.48633L12.6603 37.1922H59.3574L71.7177 24.8319L64.2092 17.3284Z" fill="#E76F51"/>
<path id="Vector_2" d="M12.6603 37.1923H59.3574L71.7137 24.833L20.9008 28.9528L12.6603 37.1923Z" fill="#FF8A6C"/>
<path id="Vector_3" d="M22.2737 35.8182L42.8724 15.2195L57.9795 30.3266L52.4859 35.8202L22.2737 35.8182Z" fill="#E76F51"/>
<path id="Vector_4" d="M26.3934 35.8184L42.7814 19.3394L53.8598 30.4177L48.5491 35.8174L26.3934 35.8184Z" fill="#FFB63B"/>
<path id="Vector_5" d="M74.4596 53.6712C74.4596 51.8501 75.183 50.1036 76.4707 48.8158C77.7585 47.5281 79.505 46.8047 81.3261 46.8047V35.8193H1.67297V46.8057C3.47962 46.8275 5.20487 47.5605 6.47473 48.8457C7.74458 50.131 8.4567 51.865 8.4567 53.6718C8.4567 55.4785 7.74458 57.2125 6.47473 58.4978C5.20487 59.783 3.47962 60.516 1.67297 60.5378V71.5242H81.3261V60.5378C79.505 60.5378 77.7585 59.8144 76.4707 58.5267C75.183 57.2389 74.4596 55.4924 74.4596 53.6712Z" fill="#E76F51"/>
<path id="Vector_6" d="M1.67297 71.5252H81.3261V60.5378C79.505 60.5378 77.7585 59.8144 76.4707 58.5267C75.183 57.2389 74.4596 55.4924 74.4596 53.6712C74.4596 51.8501 75.183 50.1036 76.4707 48.8158C77.7585 47.5281 79.505 46.8047 81.3261 46.8047V35.8193L1.67297 71.5252Z" fill="#FF8A6C"/>
<g id="Group_2">
<path id="Vector_7" d="M66.22 39.939H68.967V45.433H66.22V39.939Z" fill="white"/>
<path id="Vector_8" d="M66.22 48.1797H68.967V53.6737H66.22V48.1797Z" fill="white"/>
<path id="Vector_9" d="M66.22 56.4192H68.967V61.9132H66.22V56.4192Z" fill="white"/>
<path id="Vector_10" d="M66.22 64.6597H68.967V70.1537H66.22V64.6597Z" fill="white"/>
<path id="Vector_11" d="M14.0332 35.8193H16.7802V41.3133H14.0332V35.8193Z" fill="white"/>
<path id="Vector_12" d="M14.0332 44.0588H16.7802V49.5528H14.0332V44.0588Z" fill="white"/>
<path id="Vector_13" d="M14.0332 52.2993H16.7802V57.7933H14.0332V52.2993Z" fill="white"/>
<path id="Vector_14" d="M14.0332 60.5388H16.7802V66.0328H14.0332V60.5388Z" fill="white"/>
<path id="Vector_15" d="M14.0332 68.7793H16.7802V71.5263H14.0332V68.7793Z" fill="white"/>
</g>
<path id="Vector_16" d="M60.7273 61.9118V45.4318C59.6347 45.4318 58.5868 44.9977 57.8142 44.2251C57.0416 43.4525 56.6076 42.4046 56.6076 41.312H26.3934C26.3934 42.4046 25.9594 43.4525 25.1868 44.2251C24.4142 44.9977 23.3663 45.4318 22.2737 45.4318V61.9118C23.3663 61.9118 24.4142 62.3458 25.1868 63.1184C25.9594 63.891 26.3934 64.9389 26.3934 66.0315H56.6066C56.6066 65.4904 56.7132 64.9546 56.9203 64.4547C57.1274 63.9548 57.4309 63.5006 57.8136 63.1181C58.1963 62.7355 58.6505 62.4321 59.1505 62.2251C59.6504 62.0181 60.1862 61.9116 60.7273 61.9118Z" fill="#E76F51"/>
<path id="Vector_17" d="M57.9795 60.0819V47.2596C57.0877 47.301 56.2156 46.9876 55.5541 46.3881C54.8925 45.7885 54.4951 44.9515 54.4487 44.0598H28.5503C28.504 44.9515 28.1066 45.7885 27.445 46.3881C26.7834 46.9876 25.9114 47.301 25.0195 47.2596V60.0779C25.9114 60.0365 26.7834 60.3498 27.445 60.9494C28.1066 61.549 28.504 62.386 28.5503 63.2776H54.4487C54.4961 62.3867 54.8939 61.5507 55.5554 60.9519C56.2169 60.3532 57.0883 60.0405 57.9795 60.0819Z" fill="#FFB63B"/>
<g id="Group_3">
<path id="Vector_18" d="M81.3261 48.1785C81.689 48.1774 82.0368 48.0327 82.2933 47.776C82.5498 47.5193 82.6943 47.1715 82.6951 46.8086V35.8182C82.6951 35.4541 82.5504 35.1049 82.2929 34.8475C82.0355 34.59 81.6863 34.4453 81.3221 34.4453H64.0462L72.6887 25.8029C72.8162 25.6754 72.9174 25.524 72.9864 25.3574C73.0554 25.1908 73.0909 25.0122 73.0909 24.8319C73.0909 24.6516 73.0554 24.473 72.9864 24.3064C72.9174 24.1398 72.8162 23.9885 72.6887 23.861L65.1831 16.3614C65.0556 16.2339 64.9043 16.1327 64.7377 16.0637C64.5711 15.9947 64.3925 15.9592 64.2122 15.9592C64.0318 15.9592 63.8533 15.9947 63.6867 16.0637C63.5201 16.1327 63.3687 16.2339 63.2412 16.3614C62.2108 17.3916 60.8133 17.9702 59.3563 17.9701C57.8992 17.9699 56.5019 17.3909 55.4717 16.3604C54.4415 15.33 53.8629 13.9325 53.8631 12.4755C53.8633 11.0184 54.4423 9.62107 55.4727 8.5909C55.6002 8.46341 55.7014 8.31204 55.7704 8.14545C55.8394 7.97885 55.875 7.80029 55.875 7.61996C55.875 7.43963 55.8394 7.26107 55.7704 7.09447C55.7014 6.92788 55.6002 6.77651 55.4727 6.64902L49.3421 0.511391C49.2146 0.383861 49.0632 0.282697 48.8966 0.213676C48.73 0.144655 48.5515 0.109131 48.3711 0.109131C48.1908 0.109131 48.0122 0.144655 47.8456 0.213676C47.6791 0.282697 47.5277 0.383861 47.4002 0.511391L13.4693 34.4453H1.67297C1.30885 34.4453 0.959639 34.59 0.702167 34.8475C0.444695 35.1049 0.300049 35.4541 0.300049 35.8182V46.8086C0.300844 47.1722 0.44584 47.5206 0.703226 47.7774C0.960612 48.0343 1.30936 48.1785 1.67297 48.1785C3.11701 48.198 4.4953 48.7853 5.50958 49.8133C6.52385 50.8414 7.09252 52.2275 7.09252 53.6717C7.09252 55.1158 6.52385 56.5019 5.50958 57.53C4.4953 58.558 3.11701 59.1453 1.67297 59.1648C1.49259 59.1648 1.31398 59.2004 1.14734 59.2694C0.980707 59.3385 0.829314 59.4397 0.701813 59.5673C0.574313 59.6949 0.473206 59.8464 0.404269 60.013C0.335332 60.1797 0.299918 60.3584 0.300049 60.5387V71.5251C0.300049 71.8892 0.444695 72.2384 0.702167 72.4959C0.959639 72.7534 1.30885 72.898 1.67297 72.898H81.3261C81.6896 72.8969 82.0377 72.7518 82.2943 72.4945C82.551 72.2371 82.6951 71.8885 82.6951 71.5251V60.5387C82.6951 60.1746 82.5504 59.8254 82.2929 59.568C82.0355 59.3105 81.6863 59.1658 81.3221 59.1658C80.5945 59.1756 79.8722 59.0408 79.1972 58.7692C78.5221 58.4975 77.9077 58.0945 77.3897 57.5834C76.8717 57.0723 76.4604 56.4635 76.1797 55.7921C75.8989 55.1208 75.7543 54.4003 75.7543 53.6727C75.7543 52.945 75.8989 52.2246 76.1797 51.5532C76.4604 50.8819 76.8717 50.273 77.3897 49.7619C77.9077 49.2509 78.5221 48.8478 79.1972 48.5762C79.8722 48.3045 80.5945 48.1697 81.3221 48.1795L81.3261 48.1785ZM48.3661 3.42721L52.6349 7.69595C51.4977 9.2828 50.961 11.2219 51.1202 13.1676C51.2795 15.1133 52.1245 16.9393 53.5045 18.32C54.8846 19.7008 56.7101 20.5468 58.6558 20.707C60.6014 20.8673 62.5407 20.3316 64.1282 19.1953L69.7748 24.8369L60.1614 34.4503H55.8057L58.9545 31.3015C59.082 31.174 59.1832 31.0227 59.2522 30.8561C59.3212 30.6895 59.3568 30.5109 59.3568 30.3306C59.3568 30.1503 59.3212 29.9717 59.2522 29.8051C59.1832 29.6385 59.082 29.4871 58.9545 29.3596L43.8484 14.2476C43.7209 14.12 43.5695 14.0189 43.403 13.9498C43.2364 13.8808 43.0578 13.8453 42.8775 13.8453C42.6971 13.8453 42.5186 13.8808 42.352 13.9498C42.1854 14.0189 42.034 14.12 41.9065 14.2476L21.7078 34.4463H17.353L48.3661 3.42721ZM25.5925 34.4453L42.8735 17.1604L56.0427 30.3256L51.9229 34.4453H25.5925ZM79.9532 61.7977V70.1512H68.9669V64.6585H66.2201V70.1522H16.7801V68.7782H14.0332V70.1512H3.04688V61.7977C4.96901 61.4753 6.71464 60.482 7.97365 58.9943C9.23266 57.5065 9.92353 55.6206 9.92353 53.6717C9.92353 51.7227 9.23266 49.8368 7.97365 48.3491C6.71464 46.8613 4.96901 45.868 3.04688 45.5457V37.1922H14.0332V41.3089H16.7801V37.1892H79.9532V45.5427C78.0311 45.865 76.2855 46.8583 75.0265 48.3461C73.7674 49.8338 73.0766 51.7197 73.0766 53.6687C73.0766 55.6176 73.7674 57.5035 75.0265 58.9913C76.2855 60.479 78.0311 61.4723 79.9532 61.7947V61.7977Z" fill="#3B3735"/>
<path id="Vector_19" d="M66.224 39.9399H68.971V45.4339H66.224V39.9399Z" fill="#3B3735"/>
<path id="Vector_20" d="M66.224 48.1794H68.971V53.6734H66.224V48.1794Z" fill="#3B3735"/>
<path id="Vector_21" d="M66.224 56.4189H68.971V61.9129H66.224V56.4189Z" fill="#3B3735"/>
<path id="Vector_22" d="M14.0372 44.0598H16.7842V49.5538H14.0372V44.0598Z" fill="#3B3735"/>
<path id="Vector_23" d="M14.0372 52.2993H16.7842V57.7933H14.0372V52.2993Z" fill="#3B3735"/>
<path id="Vector_24" d="M14.0372 60.5398H16.7842V66.0338H14.0372V60.5398Z" fill="#3B3735"/>
<path id="Vector_25" d="M60.7264 44.0587C59.9979 44.0587 59.2992 43.7693 58.7841 43.2542C58.2689 42.739 57.9795 42.0404 57.9795 41.3119C57.9793 40.9479 57.8345 40.599 57.5771 40.3417C57.3196 40.0845 56.9706 39.9399 56.6066 39.9399H26.3935C26.0293 39.9399 25.6801 40.0846 25.4226 40.342C25.1652 40.5995 25.0205 40.9487 25.0205 41.3128C25.0205 42.0413 24.7311 42.74 24.216 43.2552C23.7009 43.7703 23.0022 44.0597 22.2737 44.0597C22.0933 44.0596 21.9147 44.095 21.748 44.1639C21.5813 44.2328 21.4298 44.334 21.3023 44.4615C21.1747 44.589 21.0734 44.7404 21.0044 44.907C20.9353 45.0736 20.8998 45.2522 20.8998 45.4326V61.9126C20.9 62.2766 21.0448 62.6257 21.3022 62.8831C21.5596 63.1405 21.9087 63.2852 22.2727 63.2855C23.0012 63.2855 23.6999 63.5749 24.215 64.0901C24.7301 64.6052 25.0195 65.3038 25.0195 66.0324C25.0195 66.3965 25.1642 66.7457 25.4216 67.0031C25.6791 67.2606 26.0283 67.4053 26.3924 67.4053H56.6056C56.9697 67.4053 57.3189 67.2606 57.5764 67.0031C57.8339 66.7457 57.9785 66.3965 57.9785 66.0324C57.9785 65.3038 58.2679 64.6052 58.7831 64.0901C59.2982 63.5749 59.9969 63.2855 60.7254 63.2855C61.0895 63.2855 61.4387 63.1409 61.6962 62.8834C61.9536 62.6259 62.0983 62.2767 62.0983 61.9126V45.4326C62.0984 45.2523 62.063 45.0738 61.9942 44.9071C61.9253 44.7405 61.8243 44.5891 61.6969 44.4615C61.5695 44.3339 61.4182 44.2327 61.2517 44.1636C61.0852 44.0945 60.9067 44.0588 60.7264 44.0587ZM59.3534 60.7117C58.4047 60.9596 57.5392 61.456 56.8462 62.1497C56.1532 62.8435 55.6576 63.7094 55.4107 64.6584H27.5994C27.3516 63.7087 26.855 62.8422 26.1607 62.1485C25.4664 61.4547 24.5996 60.9587 23.6496 60.7117V46.6325C24.5996 46.3855 25.4664 45.8895 26.1607 45.1958C26.855 44.502 27.3516 43.6355 27.5994 42.6858H55.4137C55.6607 43.6347 56.1563 44.5007 56.8493 45.1944C57.5423 45.8881 58.4078 46.3845 59.3564 46.6325L59.3534 60.7117Z" fill="#3B3735"/>
</g>
</g>
</g>
<defs>
<clipPath id="clip0_1_74">
<rect width="82.4" height="72.7856" fill="white" transform="translate(0.300049 0.112305)"/>
</clipPath>
</defs>
</svg>
